<?xml version="1.0" encoding="utf-8"?>
<!-- Generator: Adobe Illustrator 24.3.0, SVG Export Plug-In . SVG Version: 6.00 Build 0)  -->
<svg version="1.1" id="Layer_1" xmlns="http://www.w3.org/2000/svg" xmlns:xlink="http://www.w3.org/1999/xlink" x="0px" y="0px"
	 viewBox="0 0 6.6 6.6" style="enable-background:new 0 0 6.6 6.6;" xml:space="preserve">
<style type="text/css">
	.st0{fill:url(#SVGID_1_);}
	.st1{fill:url(#SVGID_2_);}
</style>
<g>
	
		<linearGradient id="SVGID_1_" gradientUnits="userSpaceOnUse" x1="-772.8262" y1="544.4086" x2="-772.8262" y2="545.7565" gradientTransform="matrix(5.2245 0 0 5.2245 4041.5942 -2844.467)">
		<stop  offset="0" style="stop-color:#00F08A"/>
		<stop  offset="1" style="stop-color:#009BFF"/>
	</linearGradient>
	<path class="st0" d="M2.1,2.8C2,2.7,1.8,2.7,1.7,2.8C1.6,2.8,1.6,3,1.7,3.1l1.2,1.3c0,0,0.1,0.1,0.2,0.1c0,0,0,0,0,0
		c0.1,0,0.1,0,0.2-0.1l3-3c0.1-0.1,0.1-0.2,0-0.3C6.1,1,6,1,5.9,1.1L3.1,3.9L2.1,2.8z"/>
	
		<linearGradient id="SVGID_2_" gradientUnits="userSpaceOnUse" x1="-772.958" y1="544.4086" x2="-772.958" y2="545.7565" gradientTransform="matrix(5.2245 0 0 5.2245 4041.5942 -2844.467)">
		<stop  offset="0" style="stop-color:#00F08A"/>
		<stop  offset="1" style="stop-color:#009BFF"/>
	</linearGradient>
	<path class="st1" d="M6.2,3.1C6,3.1,5.9,3.2,5.9,3.3C5.9,4.8,4.7,6,3.3,6S0.6,4.8,0.6,3.3s1.2-2.7,2.7-2.7c0.1,0,0.2-0.1,0.2-0.2
		S3.4,0.2,3.3,0.2c-1.7,0-3.1,1.4-3.1,3.1s1.4,3.1,3.1,3.1S6.4,5,6.4,3.3C6.4,3.2,6.3,3.1,6.2,3.1z"/>
</g>
</svg>
