<?xml version="1.0" encoding="utf-8"?>
<!-- Generator: Adobe Illustrator 24.2.3, SVG Export Plug-In . SVG Version: 6.00 Build 0)  -->
<svg version="1.1" id="Layer_1" xmlns="http://www.w3.org/2000/svg" xmlns:xlink="http://www.w3.org/1999/xlink" x="0px" y="0px"
	 viewBox="0 0 50 50" style="enable-background:new 0 0 50 50;" xml:space="preserve">
<style type="text/css">
	.st0{fill:url(#SVGID_1_);}
	.st1{fill:#FFFFFF;}
</style>
<g>
	
		<linearGradient id="SVGID_1_" gradientUnits="userSpaceOnUse" x1="1.2899" y1="26.971" x2="49.3478" y2="26.971" gradientTransform="matrix(1 0 0 -1 0 52)">
		<stop  offset="0" style="stop-color:#00F08A"/>
		<stop  offset="1" style="stop-color:#009BFF"/>
	</linearGradient>
	<path class="st0" d="M49.3,25c0,13.3-10.8,24-24,24s-24-10.8-24-24S12,1,25.3,1S49.3,11.8,49.3,25z"/>
	<g>
		<path class="st1" d="M25.3,35.9L19.7,30l2-1.9l3.6,3.8l3.5-3.8l2.1,1.9L25.3,35.9z"/>
		<path class="st1" d="M25.3,40.8c-5.7,0-10.3-4.6-10.3-10.3v-11c0-5.7,4.6-10.3,10.3-10.3s10.3,4.6,10.3,10.3v11
			C35.6,36.2,31,40.8,25.3,40.8z M25.3,12.1c-4.1,0-7.5,3.4-7.5,7.5v11c0,4.1,3.4,7.5,7.5,7.5c4.1,0,7.5-3.4,7.5-7.5v-11
			C32.8,15.4,29.4,12.1,25.3,12.1z"/>
		<path class="st1" d="M26.5,15.6c0,0.7-0.5,1.2-1.2,1.2s-1.2-0.5-1.2-1.2c0-0.7,0.5-1.2,1.2-1.2S26.5,14.9,26.5,15.6z"/>
		<path class="st1" d="M26.5,15.6c0,0.7-0.5,1.2-1.2,1.2s-1.2-0.5-1.2-1.2c0-0.7,0.5-1.2,1.2-1.2S26.5,14.9,26.5,15.6z"/>
		<path class="st1" d="M26.5,20.5c0,0.7-0.5,1.2-1.2,1.2s-1.2-0.5-1.2-1.2s0.5-1.2,1.2-1.2S26.5,19.8,26.5,20.5z"/>
		<path class="st1" d="M26.5,20.5c0,0.7-0.5,1.2-1.2,1.2s-1.2-0.5-1.2-1.2s0.5-1.2,1.2-1.2S26.5,19.8,26.5,20.5z"/>
		<path class="st1" d="M26.5,25.3c0,0.7-0.5,1.2-1.2,1.2s-1.2-0.5-1.2-1.2c0-0.7,0.5-1.2,1.2-1.2S26.5,24.7,26.5,25.3z"/>
		<path class="st1" d="M26.5,25.3c0,0.7-0.5,1.2-1.2,1.2s-1.2-0.5-1.2-1.2c0-0.7,0.5-1.2,1.2-1.2S26.5,24.7,26.5,25.3z"/>
	</g>
</g>
</svg>
