<?xml version="1.0" encoding="utf-8"?>
<!-- Generator: Adobe Illustrator 19.0.0, SVG Export Plug-In . SVG Version: 6.00 Build 0)  -->
<svg version="1.1" id="Layer_1" xmlns="http://www.w3.org/2000/svg" xmlns:xlink="http://www.w3.org/1999/xlink" x="0px" y="0px"
	 viewBox="0 0 273 99.7" style="enable-background:new 0 0 273 99.7;" xml:space="preserve">
<style type="text/css">
	.st0{fill:#00A69A;}
</style>
<path id="XMLID_103_" class="st0" d="M34,60.2C34,60.2,34,60.2,34,60.2c0.4-0.9,0.8-1.8,1.2-2.7c0.3-0.8,0.7-1.6,1.1-2.4
	c0.4-0.9,0.8-1.7,1.2-2.6c0.4-0.8,0.7-1.6,1.1-2.4c-0.1-0.2-0.2-0.3-0.3-0.5c-0.3,0.4-0.5,0.8-0.6,1.2c-0.4,0.8-0.8,1.7-1.2,2.5
	c-0.3,0.7-0.7,1.5-1,2.2c-0.4,0.9-0.9,1.8-1.3,2.8c-0.1,0.2-0.2,0.3-0.2,0.5c-0.1,0.3-0.2,0.7-0.6,0.9H22.7
	c-0.1-0.1-0.1-0.2-0.1-0.3c0.1-0.2,0.1-0.5,0.2-0.7c0.2-0.2,0.2-0.5,0.3-0.7c0.1-0.3,0.3-0.5,0.4-0.7c0.2-0.7,0.6-1.3,0.8-2
	c0.2-0.4,0.4-0.8,0.6-1.3c0.1-0.4,0.4-0.8,0.5-1.2c0.1-0.4,0.4-0.8,0.5-1.2c0.2-0.6,0.5-1.1,0.7-1.7c0.1-0.1,0.2-0.2,0.2-0.4
	c0.2-0.7,0.5-1.3,0.8-1.9c0.2-0.5,0.4-1,0.7-1.4c0-0.3,0.2-0.5,0.3-0.7c0.1-0.2,0.2-0.5,0.3-0.8c0.2-0.6,0.5-1.1,0.7-1.6
	c0.2-0.6,0.5-1.1,0.7-1.7c0.3-0.6,0.6-1.3,0.9-1.9c0.2-0.6,0.6-1.2,0.8-1.8c0.3-0.7,0.6-1.4,0.9-2.1h0.2c0.1,0.2,0.1,0.4,0.2,0.7
	c0.2,0.3,0.4,0.7,0.5,1c0.1,0.4,0.3,0.7,0.4,1c0.1,0.3,0.3,0.7,0.4,1c0.1,0.3,0.3,0.6,0.4,0.9c0.1,0.3,0.3,0.6,0.4,0.9
	c0.1,0.3,0.3,0.6,0.4,0.9c0.2,0.3,0.4,0.6,0.5,1c0.1,0.4,0.3,0.7,0.4,1.1c0.1,0.4,0.3,0.7,0.4,1.1c0.3,0.6,0.6,1.2,0.8,1.9
	c0.1,0.3,0.3,0.5,0.3,0.8c0.1,0.3,0.3,0.6,0.3,0.9c0.1,0.3,0.3,0.6,0.4,0.9c0.2,0.4,0.3,0.8,0.5,1.1c0.2,0.5,0.4,1.1,0.6,1.6
	c0.1,0.3,0.3,0.6,0.4,0.9c0.1,0.3,0.2,0.7,0.4,1c0.2,0.3,0.2,0.7,0.5,1c0,0.1,0.1,0.1,0.1,0.2c0.1,0.5,0.4,1,0.6,1.5
	c0.3,0.6,0.5,1.2,0.8,1.8c0.1,0.3,0.3,0.5,0.3,0.8c0.3,0.8,0.7,1.5,0.9,2.3c0.1,0.4,0.4,0.7,0.5,1c0.1,0.3,0.3,0.6,0.3,0.9
	c0.1,0.3,0.3,0.6,0.4,0.9c0.2,0.5,0.4,1,0.6,1.5c0.2,0.3,0.3,0.7,0.4,1.1c0.1,0.3,0.2,0.6,0.5,0.8c0.5,0,1.1,0.1,1.6,0.1
	c0.6,0,1.3,0,1.9,0c0.2,0,0.4,0,0.6-0.1c0.1-0.1,0.4-0.1,0.6,0c0.2,0.1,0.5,0.1,0.7,0.1c1.8,0,3.6,0,5.5,0h0.8
	c0.1-0.2,0.2-0.3,0.2-0.4c0-0.1-0.1-0.1-0.1-0.2c-0.7-1.5-1.5-2.9-2.2-4.5c-0.2-0.4-0.4-0.8-0.6-1.3c-0.3-0.7-0.6-1.4-0.9-2.1
	c-0.2-0.3-0.4-0.7-0.5-1c-0.2-0.7-0.6-1.4-0.9-2.1c-0.2-0.4-0.4-0.8-0.6-1.2c-0.1-0.3-0.3-0.6-0.4-0.9c-0.1-0.3-0.2-0.6-0.4-0.9
	c-0.3-0.6-0.5-1.1-0.7-1.7c-0.4-0.9-0.8-1.7-1.1-2.6c-0.1-0.4-0.4-0.7-0.5-1c-0.1-0.4-0.3-0.7-0.4-1.1c-0.1-0.4-0.3-0.7-0.5-1.1
	c-0.2-0.4-0.4-0.9-0.6-1.4c-0.2-0.4-0.3-0.8-0.5-1.2c-0.2-0.4-0.4-0.8-0.6-1.2c0-0.1-0.1-0.1-0.1-0.2c-0.3-0.9-0.7-1.7-1.1-2.6
	c-0.2-0.4-0.4-0.8-0.5-1.2c-0.1-0.3-0.3-0.6-0.4-1c-0.1-0.3-0.3-0.6-0.4-1c-0.2-0.4-0.4-0.9-0.6-1.3c-0.2-0.6-0.5-1.1-0.7-1.7
	c-0.2-0.5-0.4-1-0.7-1.4c-0.1-0.3-0.3-0.6-0.4-0.9c-0.1-0.4-0.4-0.7-0.4-1.1c-0.1-0.4-0.3-0.7-0.5-1c-0.2-0.5-0.4-0.9-0.6-1.4
	c-0.2-0.4-0.4-0.9-0.5-1.3c-0.2-0.5-0.4-0.9-0.6-1.3c-0.2-0.6-0.4-1.2-0.7-1.7c-0.2-0.4-0.4-0.7-0.5-1.1c-0.1-0.4-0.3-0.7-0.4-1
	c-0.1-0.4-0.3-0.7-0.4-1.1c-0.2-0.4-0.4-0.8-0.6-1.2c-0.2-0.7-0.6-1.4-0.9-2c-0.3-0.7-0.6-1.3-0.9-2c-0.3-0.7-0.7-1.5-1-2.2
	c-0.2-0.4-0.4-0.7-0.5-1.1c-0.1-0.3-0.3-0.6-0.4-0.9c-0.1-0.3-0.3-0.6-0.5-0.9c-0.1-0.3-0.3-0.5-0.5-0.7c-0.2,0-0.3,0-0.4,0.2
	c-0.2,0.5-0.5,0.9-0.7,1.4c-0.3,0.9-0.8,1.8-1.1,2.7c-0.2,0.5-0.4,0.9-0.6,1.3c-0.2,0.5-0.4,0.9-0.6,1.3c-0.2,0.5-0.4,0.8-0.6,1.3
	c-0.1,0.5-0.4,0.9-0.6,1.3c-0.2,0.4-0.4,0.8-0.5,1.1c-0.1,0.4-0.3,0.8-0.5,1.1c-0.1,0.4-0.4,0.8-0.5,1.2c-0.3,0.6-0.6,1.2-0.8,1.8
	c-0.3,0.7-0.6,1.3-0.9,2c-0.3,0.7-0.7,1.4-1,2.2c-0.4,0.9-0.8,1.7-1.2,2.6c-0.3,0.6-0.5,1.2-0.8,1.8c-0.3,0.6-0.6,1.2-0.8,1.9
	c-0.4,1-0.9,2-1.3,3c-0.3,0.7-0.6,1.4-0.9,2c-0.3,0.6-0.6,1.2-0.8,1.9c-0.2,0.5-0.5,1.1-0.7,1.6c-0.3,0.7-0.7,1.4-1,2.2
	c-0.2,0.6-0.5,1.2-0.8,1.7c-0.3,0.8-0.7,1.6-1.1,2.4c-0.1,0.1-0.2,0.3-0.2,0.4c0,0.3-0.3,0.6-0.3,0.9c-0.1,0.3-0.3,0.6-0.4,0.9
	c-0.2,0.4-0.4,0.8-0.5,1.2c-0.1,0.4-0.4,0.8-0.5,1.2c-0.4,0.8-0.7,1.6-1,2.4c-0.4,0.8-0.7,1.6-1.1,2.3c-0.3,0.6-0.5,1.2-0.8,1.7
	C9.3,61.1,9,62,8.6,62.8c-0.1,0.1-0.2,0.2-0.2,0.3c-0.1,0.4-0.3,0.8-0.5,1.2c-0.2,0.4-0.3,0.8-0.5,1.1c-0.2,0.5-0.5,0.9-0.6,1.4
	c-0.1,0.3-0.3,0.5-0.4,0.8c-0.1,0.3-0.2,0.5-0.3,0.7C6,68.4,6,68.5,6,68.6c0.1,0,0.1,0,0.1,0c4.4,0,8.8,0,13.3,0c0.1,0,0.2,0,0.3,0
	c0.2-0.1,0.4-0.2,0.6,0c0,0,0.2,0,0.2,0c0.2-0.2,0.4-0.1,0.5-0.1c3.4,0,6.8,0,10.2,0c3.2,0,6.5,0,9.7,0c0.2,0,0.4,0,0.6,0
	c0,0,0.1,0,0.2,0.1c0.1-0.2,0.2-0.3,0.4-0.5c0.3-0.5,0.4-1.1,0.7-1.6c0.1-0.4,0.3-0.7,0.4-1.1c0.1-0.4,0.3-0.7,0.5-1.1
	c0.1-0.3,0.2-0.6,0.4-0.8c0-0.1,0-0.2-0.1-0.3c-0.1-0.1-0.1-0.4-0.4-0.4c-0.2,0.4-0.4,0.9-0.6,1.3c-0.2,0.4-0.4,0.9-0.6,1.3
	c-0.3,0.7-0.6,1.4-0.9,2.1h-0.4c0-0.2,0-0.3,0.1-0.5c0.1-0.3,0.3-0.6,0.4-1c0.2-0.4,0.4-0.8,0.5-1.2c0.3-0.8,0.7-1.5,0.9-2.3
	c0.3-0.2,0.2-0.5,0.2-0.8c0-0.1-0.1-0.1-0.1-0.2c-0.2-0.4-0.3-0.8-0.5-1.2c-0.3-0.5-0.5-1.1-0.7-1.6c-0.3-0.8-0.7-1.5-1-2.3
	c-0.3-0.7-0.6-1.4-0.9-2.1c-0.3-0.6-0.5-1.2-0.7-1.7c-0.2-0.5-0.4-0.9-0.6-1.4c-0.1,0.1-0.1,0.1-0.1,0.1c-0.1,0.5-0.4,1-0.6,1.4
	c-0.3,0.8-0.7,1.5-1,2.3c-0.3,0.7-0.7,1.4-1,2.1c0,0.1-0.1,0.2-0.2,0.3c-0.1,0.5-0.3,0.9-0.5,1.3c-0.2,0.4-0.4,0.9-0.6,1.3
	c-0.2,0.3-0.3,0.7-0.5,1H20.6c0.3-0.6,0.6-1.2,0.8-1.9c0.2-0.4,0.4-0.8,0.5-1.2c0.3-0.7,0.6-1.3,0.9-2c0.4-0.8,0.7-1.7,1.1-2.5
	c0.4-0.8,0.7-1.6,1.1-2.3c0.2-0.4,0.4-0.8,0.5-1.2c0.3-0.7,0.6-1.4,0.9-2.1c0.2-0.5,0.5-1,0.7-1.6c0.3-0.8,0.6-1.5,1-2.2
	c0.3-0.6,0.5-1.1,0.7-1.7c0.2-0.4,0.5-0.8,0.6-1.2c0.1-0.4,0.3-0.7,0.4-1.1c0.1-0.4,0.3-0.7,0.5-1.1c0.2-0.4,0.4-0.9,0.6-1.4
	c0.2-0.6,0.5-1.2,0.8-1.8c0.4-0.8,0.8-1.7,1.1-2.5c0,0,0,0,0.1-0.1h0.3c0.3,0.7,0.6,1.3,0.9,2c0.2,0.6,0.5,1.2,0.8,1.8
	c0.3,0.7,0.6,1.5,0.9,2.2c0.2,0.6,0.5,1.2,0.8,1.8c0.1,0.3,0.3,0.5,0.4,0.8c0.1,0.3,0.3,0.6,0.4,0.9c0.1,0.3,0.2,0.6,0.4,0.9
	c0.3,0.5,0.4,1.1,0.7,1.6c0,0.3,0.3,0.6,0.4,0.9c0.2,0.8,0.6,1.4,0.9,2.2c0.1,0.4,0.4,0.7,0.5,1c0.2,0.5,0.4,1,0.6,1.5
	c0.2,0.5,0.4,0.9,0.6,1.4c0.4,0.9,0.8,1.8,1.2,2.7c0.4,0.9,0.8,1.7,1.1,2.6c0.1,0.3,0.3,0.6,0.4,0.9c0.2,0.4,0.3,0.9,0.5,1.3
	c0.2,0.4,0.4,0.8,0.6,1.2c0.3,0.9,0.8,1.8,1.1,2.7c0.2,0.6,0.6,1.2,0.8,1.9c0.1,0.3,0.2,0.6,0.4,0.8c0.1,0.2,0.2,0.5,0.3,0.7
	c0.3,0.1,0.5,0.1,0.7,0.1c0.2,0,0.4,0,0.7,0c2.6-0.1,5.1,0.2,7.7,0.1c0.1,0,0.2,0,0.2,0c0.1,0,0.2,0.1,0.3,0.2
	c-0.1,0.1-0.1,0.2-0.2,0.3c-0.8,0-1.6,0-2.4,0c-0.8,0-1.6-0.1-2.3-0.1c-0.6,0-1.2,0-1.8,0c-1,0-2.1-0.1-3.1-0.1c0,0-0.1-0.1-0.1-0.2
	c-0.1-0.3-0.3-0.7-0.4-1c-0.1-0.4-0.4-0.7-0.5-1c-0.1-0.3-0.3-0.6-0.4-0.9c-0.1-0.3-0.2-0.6-0.4-0.9c-0.3-0.5-0.4-1.1-0.7-1.6
	c0-0.3-0.3-0.6-0.3-0.9c-0.1-0.3-0.3-0.6-0.4-0.9c-0.1-0.3-0.3-0.6-0.4-1c-0.2-0.5-0.4-1.1-0.7-1.6c-0.1-0.2-0.2-0.3-0.3-0.5
	c-0.2-0.8-0.6-1.6-1-2.3c-0.2-0.6-0.5-1.2-0.8-1.7c-0.3-0.6-0.5-1.3-0.8-1.9c-0.1-0.3-0.3-0.5-0.4-0.8c-0.2-0.5-0.4-1-0.6-1.5
	c-0.2-0.5-0.5-1.1-0.7-1.6c-0.3-0.7-0.6-1.5-0.9-2.2c-0.3-0.9-0.7-1.7-1.1-2.6c-0.1-0.3-0.3-0.5-0.4-0.8c-0.2-0.6-0.5-1.2-0.7-1.8
	c-0.2-0.5-0.4-1.1-0.7-1.6c0-0.3-0.2-0.6-0.3-0.9c-0.1-0.3-0.3-0.6-0.4-0.9c-0.1-0.3-0.3-0.6-0.4-0.9c0-0.3-0.3-0.6-0.3-0.9
	c0-0.1-0.1-0.4-0.3-0.4c0,0-0.1,0-0.1,0.1c-0.2,0.6-0.5,1.2-0.8,1.8c-0.2,0.4-0.4,0.8-0.6,1.3c-0.2,0.4-0.4,0.9-0.6,1.3
	c-0.3,0.7-0.6,1.5-1,2.2c-0.3,0.7-0.6,1.3-0.9,2c-0.3,0.8-0.7,1.7-1.1,2.5c-0.3,0.7-0.5,1.3-0.9,2c-0.1,0.5-0.4,0.8-0.5,1.3
	c-0.2,0.4-0.4,0.9-0.6,1.3c-0.2,0.4-0.4,0.8-0.5,1.2c-0.1,0.4-0.4,0.7-0.5,1.1c-0.1,0.4-0.3,0.8-0.5,1.2c-0.2,0.5-0.4,0.9-0.6,1.4
	c-0.1,0.3-0.3,0.7-0.4,1c-0.1,0.4-0.3,0.7-0.4,1.1c-0.2,0.4-0.4,0.8-0.6,1.2c-0.2,0.7-0.6,1.3-0.9,2.1c0,0.1-0.1,0.2-0.1,0.4H22
	c2.2,0,4.4,0,6.7,0c0.2,0,0.4,0,0.6,0.1c0,0,0,0,0.1-0.1c0,0,0,0.1,0.1,0.1c1.4,0,2.8,0,4.3,0C33.8,60.3,33.9,60.3,34,60.2"/>
<path id="XMLID_102_" class="st0" d="M68.8,35.8c-0.1-0.1-0.2-0.1-0.2-0.1c-0.1-0.4-0.3-0.7-0.5-1c-0.1-0.3-0.3-0.7-0.4-1
	c-0.1-0.4-0.3-0.7-0.4-1.1c-0.2-0.4-0.4-0.8-0.6-1.2c-0.1-0.4-0.4-0.8-0.5-1.2c-0.1-0.4-0.4-0.8-0.6-1.2c-0.2-0.4-0.4-0.9-0.6-1.3
	c-0.3-0.7-0.6-1.3-0.9-2c-0.2-0.6-0.5-1.2-0.8-1.8c-0.3-0.7-0.7-1.4-1-2.2c-0.1-0.3-0.3-0.6-0.4-0.9c-0.3-0.7-0.6-1.3-0.9-2
	c-0.2-0.6-0.5-1.2-0.8-1.8c-0.3-0.6-0.6-1.2-0.8-1.9c-0.3-0.7-0.6-1.5-1-2.2c-0.2-0.4-0.5-0.8-0.6-1.3c-0.1-0.3-0.3-0.5-0.3-0.8
	c-0.1-0.3-0.3-0.5-0.4-0.8c-0.1-0.2-0.2-0.4-0.5-0.5c-0.3,0.2-0.4,0.5-0.5,0.7c-0.1,0.1,0,0.3-0.1,0.4c-0.4,0.9-0.8,1.8-1.2,2.7
	c-0.3,0.8-0.7,1.6-1.1,2.4c-0.1,0.1-0.2,0.2-0.2,0.4c-0.1,0.5-0.4,1-0.6,1.5c-0.2,0.5-0.4,1-0.7,1.5c-0.1,0.2-0.2,0.3-0.2,0.5
	c0,0.4-0.3,0.7-0.5,1.1c-0.1,0.4-0.3,0.8-0.5,1.1c-0.2,0.4-0.4,0.8-0.6,1.3c-0.3,0.9-0.8,1.7-1.2,2.6c-0.2,0.4-0.4,0.7-0.5,1.1
	c-0.1,0.4-0.3,0.8-0.5,1.1c-0.1,0.4-0.3,0.8-0.5,1.1c-0.2,0.5-0.5,0.9-0.6,1.4c-0.1,0.3-0.3,0.6-0.4,1c-0.3,0.8-0.7,1.5-1,2.2
	c-0.2,0.5-0.4,1-0.7,1.4c-0.1,0.2-0.2,0.5-0.2,0.7c0.1,0.2,0.1,0.5,0.3,0.7c0.1-0.4,0.3-0.7,0.4-1c0.3-0.6,0.6-1.2,0.8-1.9
	c0.3-0.6,0.5-1.2,0.8-1.8c0.3-0.6,0.6-1.3,0.9-1.9c0.2-0.5,0.5-1,0.7-1.6c0.4-0.9,0.8-1.7,1.2-2.5c0-0.1,0.1-0.2,0.1-0.3
	c0-0.4,0.3-0.7,0.4-1.1c0.1-0.4,0.3-0.8,0.5-1.1c0.2-0.4,0.4-0.8,0.6-1.2c0.3-0.8,0.7-1.6,1.1-2.5c0.2-0.5,0.4-1,0.6-1.5
	c0.3-0.8,0.7-1.5,1-2.3c0.1-0.2,0.2-0.4,0.3-0.7c0.1-0.2,0.3-0.4,0.3-0.7c0.5-0.7,0.7-1.6,1.1-2.3c0.1-0.3,0.3-0.5,0.4-0.8H57
	c0.1,0.1,0.1,0.2,0.1,0.3c-0.1,0.4-0.3,0.7-0.4,1c-0.1,0.3-0.4,0.6-0.4,1c-0.5,0.7-0.7,1.6-1.1,2.3c-0.2,0.4-0.4,0.8-0.5,1.2
	c-0.2,0.4-0.4,0.8-0.5,1.2c-0.2,0.4-0.3,0.9-0.5,1.3c-0.1,0.2-0.3,0.4-0.3,0.7c-0.4,0.7-0.7,1.6-1.1,2.3c-0.1,0.2-0.2,0.3-0.2,0.5
	c-0.2,0.7-0.6,1.4-0.9,2.1c-0.2,0.5-0.4,0.9-0.6,1.4c-0.2,0.4-0.3,0.7-0.5,1.1c-0.2,0.4-0.3,0.8-0.5,1.2c-0.1,0.2-0.3,0.4-0.3,0.5
	c-0.1,0.5-0.4,0.8-0.5,1.3c-0.2,0.4-0.4,0.8-0.6,1.3c-0.2,0.4-0.4,0.8-0.5,1.2c-0.2,0.6-0.5,1.2-0.8,1.8c-0.1,0.1-0.1,0.2-0.2,0.3
	c-0.2,0.6-0.6,1.2-0.8,1.9c0,0.1-0.1,0.4,0.1,0.5c0,0.4,0.3,0.7,0.4,1c0.2,0.6,0.5,1.1,0.7,1.7c0.3,0.8,0.7,1.6,1,2.4
	c0.2,0.6,0.6,1.2,0.8,1.9c0.1,0.3,0.3,0.5,0.3,0.8c0.2,0.6,0.5,1.2,0.8,1.9c0,0.1,0.1,0.2,0.2,0.3c0.1,0,0.1,0,0.1-0.1
	c0.5-1.1,1.1-2.2,1.6-3.3c0.4-1,0.9-1.8,1.3-2.8c0.5-1.1,1.1-2.1,1.6-3.2c0.3-0.7,0.7-1.3,1-1.9c0.3-0.6,0.6-1.1,0.8-1.7
	c0.1-0.3,0.3-0.7,0.6-1c0.2,0.1,0.3,0.1,0.5,0.2c0,0.1,0,0.1,0.1,0.2c0.2,0.5,0.5,0.9,0.7,1.4c0.2,0.5,0.5,0.9,0.7,1.4
	c0.2,0.5,0.5,0.9,0.7,1.4c0.5,1.1,1.1,2.2,1.7,3.4c0.2,0.5,0.5,1,0.7,1.5c1.2,2.4,2.4,4.7,3.5,7c0.1,0.2,0.2,0.4,0.2,0.7
	c0,0,0,0.1,0,0.1h-0.3c-0.1-0.1-0.2-0.3-0.3-0.5c-0.5-0.9-1-1.9-1.4-2.9c-0.5-1-1-1.9-1.4-2.9c-0.4-1-1-1.9-1.4-2.9
	c-0.2-0.4-0.4-0.7-0.5-1.1c-0.2-0.4-0.3-0.7-0.5-1.1c-0.2-0.4-0.3-0.7-0.5-1.1c-0.2-0.3-0.4-0.7-0.6-1.1c-0.5-1-1-2-1.5-3.1
	c-0.1,0.1-0.1,0.1-0.2,0.2c-0.2,0.4-0.4,0.8-0.5,1.2c-0.3,0.6-0.6,1.2-0.9,1.8c-0.3,0.6-0.6,1.2-0.9,1.9c-0.5,1.1-1.1,2.1-1.5,3.2
	c-0.2,0.5-0.6,1-0.8,1.6c-0.2,0.6-0.5,1.1-0.8,1.6c-0.3,0.7-0.7,1.4-1.1,2.1c-0.1,0.2-0.2,0.5-0.2,0.7c0.1,0.2,0.2,0.3,0.3,0.5h0.2
	c0.1-0.1,0.1-0.3,0.2-0.4c0.1-0.3,0.3-0.6,0.5-1c0.1-0.3,0.3-0.6,0.5-1c0.4-0.8,0.8-1.6,1.1-2.4c0.2-0.6,0.5-1.1,0.8-1.7
	c0.5-1,0.9-2,1.4-3c0.2-0.4,0.4-0.9,0.6-1.3c0.3-0.7,0.7-1.4,1-2.2c0.1-0.2,0.2-0.2,0.4-0.2c0,0.1,0.1,0.1,0.1,0.2
	c1.7,3.5,3.5,6.9,5.2,10.4c0.2,0.4,0.4,0.7,0.5,1.2c0,0.1,0.2,0.2,0.2,0.4c0,0.2,0.2,0.3,0.3,0.4c0.3,0.5,0.5,1,0.7,1.6
	c0.2,0.4,0.4,0.8,0.6,1.2c0.1,0,0.1,0,0.1,0c2.4,0,4.7,0,7.1,0c0.2,0,0.3-0.1,0.5-0.1c0.1-0.2,0.2-0.5,0.3-0.6
	c0.3-0.4,0.4-0.8,0.7-1.2c0.1-0.6,0.6-1.1,0.7-1.7c0.4-0.5,0.7-1.2,1-1.8c0.5-0.9,0.9-1.9,1.4-2.8c0.5-0.9,0.9-1.9,1.5-2.8
	c0.3-0.5,0.5-1,0.8-1.5c0.5-1,1-1.9,1.4-2.9c0.1-0.3,0.4-0.4,0.7-0.5c0.2,0.3,0.4,0.7,0.5,1c0.3,0.6,0.5,1.2,0.8,1.8
	c0.6,1.4,1.3,2.7,2,4.1c0.7,1.6,1.6,3.1,2.3,4.8c0.4,1,1,2,1.5,3c0.3,0.6,0.6,1.3,0.8,1.9c0.2,0.4,0.5,0.7,0.6,1.1
	c0.2,0.4,0.4,0.8,0.6,1.2c0.2,0.1,0.2,0.3,0.3,0.5c0.1,0.2,0.2,0.3,0.3,0.6c0,0.1,0.1,0.3,0.1,0.4c0.7,1.4,1.4,2.7,2,4.1
	c0.7,1.5,1.5,3,2.2,4.5c0.5,1.2,1.1,2.3,1.7,3.4c0.3,0,0.6,0.1,0.9,0.1c1,0,2.1,0,3.1,0c0.1,0,0.2,0,0.3,0c0.2-0.1,0.5-0.1,0.6-0.1
	c0.3,0.1,0.7,0.1,1,0.1c1.3,0,2.7,0,4,0c0.1-0.1,0.2-0.2,0.3-0.3c0-0.2,0-0.3,0-0.5c-0.1-0.2-0.2-0.4-0.3-0.6
	c-0.3-0.6-0.6-1.2-0.9-1.9c-0.2-0.5-0.5-1-0.7-1.5c-0.5-1-1-2-1.4-3c-0.3-0.6-0.6-1.2-0.9-1.8c-0.2-0.6-0.6-1.2-0.8-1.8
	c-0.2-0.6-0.6-1.2-0.9-1.8c-0.4-0.9-0.8-1.8-1.3-2.7c-0.3-0.7-0.7-1.4-1-2.2c-0.3-0.6-0.6-1.3-0.9-1.9c-0.3-0.6-0.5-1.2-0.8-1.8
	c-0.4-0.8-0.7-1.6-1-2.4c-0.3-0.8-0.7-1.6-1.1-2.4c-0.1-0.3-0.3-0.6-0.4-0.9c-0.1-0.4-0.4-0.7-0.5-1.2c-0.1-0.4-0.3-0.8-0.5-1.2
	c-0.2-0.5-0.5-0.9-0.6-1.4c-0.1-0.4-0.4-0.8-0.5-1.2c-0.2-0.4-0.3-0.8-0.5-1.2c-0.1-0.1-0.2-0.3-0.2-0.4c0-0.4-0.3-0.7-0.4-1
	c-0.1-0.3-0.3-0.7-0.4-1c-0.2-0.4-0.4-0.8-0.6-1.3c-0.3-0.9-0.8-1.7-1.2-2.6c-0.2-0.4-0.3-0.8-0.5-1.1c0-0.3-0.2-0.5-0.3-0.8
	c-0.1-0.3-0.2-0.5-0.3-0.8c-0.1-0.2-0.2-0.3-0.3-0.5c-0.2-0.6-0.5-1.3-0.8-1.9c-0.2-0.5-0.4-1-0.7-1.4c0-0.3-0.2-0.5-0.3-0.8
	c-0.1-0.3-0.2-0.5-0.3-0.8c-0.1-0.2-0.2-0.3-0.3-0.5c-0.2-0.7-0.5-1.3-0.8-1.9c-0.2-0.4-0.4-0.8-0.5-1.2c-0.2-0.4-0.4-0.8-0.6-1.2
	c-0.2-0.4-0.3-0.9-0.5-1.3c-0.2-0.4-0.4-0.8-0.6-1.2c-0.3-0.8-0.7-1.6-1.1-2.5c-0.1-0.1-0.2-0.3-0.2-0.4c0-0.4-0.2-0.6-0.6-0.6
	c-0.2,0.1-0.2,0.3-0.3,0.5c-0.4,0.9-0.8,1.9-1.2,2.8c-0.3,0.8-0.7,1.6-1.1,2.3c-0.3,0.7-0.6,1.3-0.9,2c-0.3,0.7-0.7,1.4-1,2.2
	c-0.3,0.7-0.6,1.3-0.9,2c-0.2,0.6-0.6,1.2-0.8,1.8c0,0.1-0.1,0.2-0.1,0.3c0,0.4-0.3,0.7-0.4,1.1c-0.1,0.4-0.3,0.8-0.5,1.1
	c-0.2,0.4-0.4,0.8-0.6,1.2c-0.3,0.6-0.6,1.3-0.8,1.9c-0.4,0.9-0.9,1.8-1.3,2.8c-0.1,0.1-0.2,0.2-0.2,0.4c-0.1,0.4-0.4,0.7-0.5,1.1
	c-0.1,0.4-0.3,0.8-0.5,1.2C69.5,34.5,69.1,35.1,68.8,35.8"/>
<path id="XMLID_101_" class="st0" d="M115.4,20.5c0.3,0.1,0.4,0.1,0.6,0.2c0.1,0,0.2,0.1,0.3,0c0.4-0.3,0.9-0.1,1.4-0.1
	c0.4,0,0.8-0.1,1.1-0.5c0.4-0.6,1.2-0.8,1.5-1.5c0.6-0.2,0.9-0.9,1.4-1.2h0.4c-0.1,0.8-0.1,1.5-0.2,2.2c-0.2,0.1-0.3,0.2-0.5,0.3
	c-0.3-0.1-0.5-0.2-0.8-0.3c-0.2,0.1-0.4,0.2-0.5,0.3c0,0.3-0.1,0.5,0.3,0.7c0.5-0.1,1-0.2,1.6-0.2c0.2,0,0.5-0.2,0.7-0.3
	c0-0.8,0-1.5,0-2.2c0-0.2,0-0.5,0.1-0.7c0.1-0.3,0-0.7-0.1-0.9c-0.2-0.1-0.3-0.1-0.5-0.2c-0.2,0.1-0.5,0.2-0.7,0.4
	c-0.3,0.2-0.5,0.5-0.7,0.7c-0.9,0.9-1.8,1.8-2.6,2.6h-1.5c0.1-0.2,0.1-0.3,0.2-0.3c0.7-0.6,1.3-1.3,2-1.9c1-0.9,2-1.9,3-2.9v-0.2
	c-0.1-0.1-0.3-0.1-0.4-0.2c-0.6,0-1.2,0-1.9,0c-0.4,0-0.6,0.1-0.9,0.3c-0.8,0.6-1.4,1.4-2.3,2c-0.4,0.3-0.8,0.7-1.2,1
	c-0.8,0.7-1.5,1.4-2.3,2.1c-0.2,0.1-0.5,0.1-0.7,0.2c-0.3-0.1-0.6-0.1-0.9-0.2c0-0.1,0-0.2,0.1-0.2c0.6-0.6,1.2-1.2,1.8-1.6
	c0.3-0.2,0.5-0.5,0.8-0.7c0.3-0.2,0.6-0.5,0.9-0.7c0.6-0.6,1.2-1.1,1.9-1.7c0.1-0.1,0.2-0.1,0.3-0.1c0.5-1.5,0.2-3.1,0.3-4.6
	c-0.2-0.1-0.4-0.2-0.6-0.4c-0.6,0.1-1.3-0.1-1.9,0.1c-0.1,0.1-0.4,0.1-0.6-0.1c-0.1-0.1-0.4-0.1-0.5-0.1c-0.2,0.2-0.5,0.1-0.7,0.1
	c-0.5,0-1.1,0-1.5,0c-0.4-0.2-0.7-0.3-1-0.5c-0.3,0.2-0.6,0.4-0.8,0.5c-0.1,0.4,0.2,0.5,0.4,0.7c0.4,0,0.7,0,1-0.1
	c0.3-0.2,0.6-0.2,0.9-0.2c1.4,0,2.8,0,4.2,0c0.1,0.1,0.2,0.2,0.4,0.4c0.1,0.5-0.2,1-0.2,1.5c0.1,0.5,0,1.1,0,1.7
	c-0.2,0.2-0.5,0.6-0.8,0.8c-0.7,0.6-1.4,1.2-2.1,1.8c-0.5,0.5-1,0.9-1.5,1.3c-0.8,0.6-1.5,1.2-2.2,1.9c0,0,0,0.1-0.1,0.2
	c0.1,0.1,0.1,0.3,0.2,0.4h3c0.2-0.2,0.4-0.4,0.7-0.5c0.2-0.2,0.5-0.4,0.7-0.6c0.5-0.4,0.9-0.9,1.4-1.3c0.5-0.4,1-1,1.5-1.4
	c0.6-0.5,1.2-1.1,1.8-1.6c0.8,0,0.8,0,1.1,0.4c-0.2,0.2-0.4,0.4-0.6,0.6c-0.2,0.2-0.4,0.5-0.6,0.6c-0.3,0.1-0.3,0.5-0.6,0.6
	c-0.7,0.4-1.2,1.1-1.7,1.6c-0.3,0.2-0.5,0.6-0.8,0.7c-0.4,0.2-0.5,0.5-0.7,0.7C115.3,20.3,115.3,20.4,115.4,20.5"/>
<path id="XMLID_100_" class="st0" d="M200.6,62.9c1.5-1.2,2.8-2.2,4.2-3.3c-0.1-0.2-0.2-0.4-0.3-0.5H202c-0.2-0.2-0.4-0.3-0.6-0.4
	h-0.8c-0.3,0.3-0.7,0.6-1,0.8c-0.3,0.3-0.6,0.6-1,0.8c-0.3,0.2-0.5,0.5-0.8,0.7c-0.4,0.2-0.6,0.5-0.7,0.8c0.3,0.6,2.1,2.3,2.7,2.7
	h1.2c0.4-0.3,0.9-0.6,1.3-1c0.5-0.4,0.9-0.8,1.3-1.2c0.4-0.3,0.6-0.6,1-0.8c0.3-0.2,0.4-0.4,0.7-0.6c0.2-0.2,0.5-0.4,0.7-0.6
	c0.4-0.4,0.8-0.8,1.3-1.1c0.3-0.2,0.6-0.6,0.9-0.7c0.3-0.2,0.6-0.4,0.7-0.8c-0.1-0.1-0.2-0.2-0.4-0.4c-0.4,0-0.8,0-1.2,0
	c-0.4,0-0.8,0.1-1.1,0.1c-1,0-2.1,0-3.1,0c-0.5-0.4-1-0.9-1.5-1.3h-0.5c-0.4,0.3-0.8,0.6-1.1,0.9c-0.8,0.8-1.6,1.5-2.5,2.2
	c-0.6,0.5-1.2,1.1-1.9,1.7c-0.1,0.1-0.1,0.2-0.2,0.2c-0.5,0.2-0.5,0.6-0.5,1c0.3,0.3,0.7,0.7,1,1c0.6,0.6,1.1,1.2,1.8,1.7
	c0.2,0.1,0.2,0.4,0.4,0.5c0.2,0.2,0.4,0.3,0.6,0.4c0.5,0.5,1.1,0.5,1.7,0.4c0.2,0,0.3-0.1,0.5-0.1c0.3,0,0.7,0,0.9,0
	c3.3-2.6,6.6-5.3,9.8-7.9c0.3,0.2,0.5,0.4,0.7,0.5v0.5c-2.6,2.1-5.2,4.1-7.7,6.1c-0.1,0.3,0,0.5,0.2,0.6c0.3,0.1,0.6,0.2,0.9,0.2
	c0.5,0,1,0,1.5,0c0.3,0,0.5-0.1,0.7-0.3c0.3-0.2,0.5-0.4,0.7-0.6c0.3-0.2,0.5-0.4,0.8-0.6c0.8-0.7,1.6-1.3,2.4-2
	c0.7-0.6,1.4-1.2,2.1-1.8h0.5c0.2,0.2,0.5,0.5,0.7,0.7v0.3c-0.7,0.6-1.4,1.1-2.1,1.7c-0.6,0.5-1.3,0.9-1.9,1.5
	c-0.4,0-0.4,0.4-0.6,0.7c0.2,0.1,0.5,0.2,0.7,0.3c0.9,0.1,1.8,0.1,2.7,0.2c0.6-0.4,1.1-0.8,1.6-1.2c0.6-0.5,1.1-1,1.8-1.4
	c0.4-0.3,0.5-0.5,0.5-0.9c0-0.5-0.1-0.9,0.1-1.4c0.1-0.3,0-0.6-0.2-0.7c-0.5-0.3-0.8-0.7-1.2-1.1c-0.4-0.4-0.8-0.8-1.3-1.1
	c-0.7-0.6-1.4-1.3-2.1-2c-0.3-0.2-0.5-0.4-0.9-0.4c-0.7,0-1.3,0-2,0c-0.8,0-1.7,0-2.5,0c-0.8,0-1.7,0-2.5,0.1
	c-0.7,0.1-1.3-0.2-1.8-0.7c-0.3-0.3-0.7-0.7-1.1-0.9c-0.5-0.2-0.6-0.6-0.6-1.1c0-2.2,0-4.3,0-6.4c0.2-0.3,0.4-0.5,0.6-0.8v-0.7
	c-0.1-0.1-0.1-0.1-0.2-0.2h-0.7c-0.3,0.2-0.4,0.4-0.6,0.6c0.1,0.3,0.2,0.6,0.2,0.9c0,1,0,2.1,0,3.1c0,1-0.1,2.1,0.1,3.1
	c0.1,0.4,0,0.8,0,1.2c0.7,1.1,1.9,1.6,2.8,2.5c2.1,0,4.3,0,6.4,0c0.6,0,1.2-0.1,1.6-0.2c0.9,0.3,1.3,1,1.9,1.5
	c0.6,0.5,1.2,1,1.7,1.6c0.5,0.6,1.3,0.8,1.6,1.7c-0.1,0.4-0.1,1-0.2,1.6c-0.2,0.2-0.5,0.4-0.8,0.6c-0.7,0.5-1.4,1.1-2.1,1.6
	c-0.2,0.1-0.4,0.2-0.7,0.2c-0.4,0-0.8,0-1.2,0c-0.1-0.1-0.2-0.2-0.2-0.2c1.3-1,2.6-2.1,3.9-3.1v-0.5c-0.4-0.4-0.8-0.8-1.2-1.2
	c-0.3-0.1-0.5-0.1-0.8-0.2c-0.5,0.4-1.1,0.7-1.6,1.2c-0.8,0.7-1.6,1.3-2.4,2c-0.9,0.7-1.7,1.5-2.7,2.1c-0.2,0-0.4,0-0.6,0
	c-0.2,0-0.4,0-0.7,0c0.1-0.2,0.2-0.3,0.3-0.4c0.7-0.7,1.5-1.2,2.3-1.8c0.9-0.7,1.8-1.5,2.7-2.2c0.3-0.3,0.8-0.4,1-0.8
	c0.4-0.4,1-0.6,1.1-1.2c-0.5-0.5-1-1-1.4-1.5h-0.5c-3.4,2.7-6.7,5.4-10,8h-2.1l-3.5-3.5c-0.1-0.3,0.2-0.4,0.3-0.6
	c0.1-0.1,0.3-0.1,0.4-0.2c0.7-0.7,1.6-1.4,2.4-2.1c0.7-0.6,1.4-1.3,2.1-1.9h0.6c0.4,0.4,0.8,0.7,1.1,1c1.5,0,3,0,4.5,0
	c0,0,0,0,0.1,0.1c0,0,0,0,0,0.1c-0.2,0.2-0.3,0.4-0.5,0.6c-0.2,0.1-0.3,0.3-0.5,0.4c-0.2,0.1-0.4,0.3-0.6,0.4
	c-0.3,0.2-0.5,0.5-0.9,0.8c-0.3,0.2-0.6,0.6-0.9,0.8c-0.8,0.7-1.7,1.4-2.5,2c-0.4,0.3-0.7,0.7-1.2,0.6c-0.8-0.8-1.5-1.5-2.2-2.2
	c0.9-0.8,1.9-1.6,2.8-2.4c0.5-0.1,0.8,0.3,1.2,0.4c0.4,0,0.7,0,1,0c0.1,0.5-0.4,0.5-0.6,0.7c-0.2,0.2-0.4,0.4-0.7,0.5
	c-0.2,0.2-0.5,0.4-0.8,0.6c-0.2-0.1-0.5-0.1-0.8-0.2c-0.2,0.1-0.4,0.2-0.6,0.4c0.1,0.3,0.1,0.6,0.2,0.8
	C200.1,62.8,200.4,62.9,200.6,62.9"/>
<path id="XMLID_99_" class="st0" d="M256.9,25.3c0.1,0,0.3,0,0.3-0.1c0.2-0.2,0.5-0.4,0.7-0.5c0.2-0.2,0.5-0.3,0.7-0.5
	c0.3-0.3,0.6-0.4,1-0.4c1.6,0,3.1,0,4.7,0c0.1-0.1,0.1-0.1,0.2-0.2c0-0.3,0-0.7,0-1c-0.1-0.4,0.2-0.7,0.2-1c0-1.5,0-3.1,0-4.6
	c0-0.2-0.1-0.3-0.1-0.4c0.1-0.2,0.1-0.4,0.1-0.5c0-1.9,0-3.8,0-5.6c-0.5-0.5-1-0.9-1.5-1.2c-0.5-0.3-1-0.4-1.6-0.5
	c-0.6-0.1-1.3,0.1-1.9,0.1c-0.8,0-1.6,0-2.4,0c-0.8,0.7-1.8,1.1-2.3,2.1c0,4.7,0,9.3,0,14c0,0.4,0,0.8-0.3,1.1
	c0.1,0.2,0.3,0.4,0.4,0.6h0.4c0.2-0.2,0.4-0.3,0.5-0.4c-0.3-0.9-0.2-1.8-0.2-2.7c0-4,0-8.1,0-12.1v-0.6c0.7-0.5,1.3-1,1.9-1.5h4.6
	c0.6,0.4,1.1,0.7,1.6,1.1c0,0.3,0,0.5,0,0.8c-0.1,3.7,0.2,7.3-0.1,11c0,0.2,0,0.5,0,0.7c-0.1,0-0.2,0-0.3,0
	c-1.5-0.1-2.9,0.2-4.4,0.2c-0.4,0-0.7,0.2-1,0.5c-0.2,0.1-0.3,0.3-0.4,0.4h-0.4V12.3c0.2-0.2,0.3-0.4,0.5-0.7c0.2,0,0.3,0,0.4,0
	v10.6l0.2,0.2c0.5,0,1,0.1,1.3-0.2c0.2-0.3,0.4-0.6,0.6-0.9V11.1c0.3-0.3,0.5-0.3,0.7,0v10.7c0.1,0.2,0.2,0.4,0.3,0.5h1.2
	c0.2-0.2,0.4-0.4,0.6-0.5c0-0.7,0-1.3,0-1.9c-0.1-2.5,0.2-4.9,0.2-7.4c0-0.4,0-0.8,0.3-1.1c-0.1-0.2-0.3-0.4-0.4-0.6h-0.5
	c-0.2,0.2-0.4,0.3-0.5,0.4c0,0.1,0,0.3,0.1,0.3c0.2,0.3,0.3,0.6,0.3,1c0,0.9,0,1.9,0,2.8c0.1,2.1-0.3,4.2-0.1,6.3
	c-0.1,0.1-0.3,0.2-0.4,0.2c-0.1-0.2-0.1-0.3-0.2-0.5V10.8c-0.2-0.2-0.3-0.3-0.4-0.5c-0.6,0.1-1.1,0.2-1.7,0.2c0,0.3-0.1,0.6-0.1,0.9
	c0,3.1,0,6.3,0,9.4v0.7c-0.2,0.3-0.4,0.4-0.6,0.2c-0.1-1,0.2-2.1-0.2-3.1c0-0.1,0-0.2,0-0.3c0.2-0.2,0.1-0.5,0.1-0.7
	c0-0.8,0-1.7,0-2.5c0-1.5,0.1-3.1-0.1-4.6c0,0,0-0.1-0.1-0.1h-0.4c-0.2,0.1-0.3,0.2-0.5,0.3c-0.3,0.2-0.4,0.5-0.8,0.7
	c-0.1,0-0.1,0.2-0.2,0.3c-0.3,0.2,0,0.7-0.3,1c-0.1,0.1,0,0.3,0,0.4c0,0.9,0,1.8,0,2.7c0,0.9,0,1.8,0.1,2.7c0.1,0.9,0,1.8-0.1,2.7
	c-0.1,1,0,2.1,0,3.2C256.5,24.7,256.6,25,256.9,25.3"/>
<path id="XMLID_98_" class="st0" d="M243.7,29c0.2-2.4-0.2-4.8-0.1-7.2c0-0.4,0-0.8,0-1.1v-2c0-0.7,0-1.3,0-2c0-0.6,0-1.2-0.1-1.8
	c-0.1-0.6,0-1.3,0-2v-2c-0.5-0.5-0.9-1-1.4-1.5c-0.3-0.1-0.6-0.2-0.8-0.2c-2,0-4,0-5.8,0c-0.6,0.3-1.1,0.7-1.6,1
	c-0.5,0.3-0.6,0.7-0.7,1.2c-0.1,1.1,0,2.1-0.1,3.2c-0.1,1.3,0,2.6,0,3.8c0,1.3-0.1,2.5-0.2,3.8c0,0.6-0.1,1.2-0.2,1.8
	c0.2,0.1,0.5,0.2,0.7,0.3c0.2-0.2,0.4-0.3,0.6-0.5v-0.7c-0.1-0.1-0.3-0.2-0.4-0.3c0-0.8,0-1.5,0-2.2c0-0.7-0.1-1.5,0.1-2.2
	c0.1-0.4,0-1,0-1.4c-0.1-2,0.3-3.9,0.1-5.9c0.5-0.4,1-0.7,1.5-1.1c0.7,0.1,1.5-0.3,2.2-0.2c0.6,0.1,1.3,0.1,1.9,0.2c0.7,0,1.3,0,2,0
	c0,0,0,0,0.1,0c0.4,0.4,0.7,0.7,1.1,1.1c0.1,1.1-0.1,2.2,0.2,3.2c0.1,3.3-0.1,6.6,0.1,9.8c0.1,1.6,0,3.3,0,5
	c0.2,0.2,0.3,0.5,0.6,0.7c0.3,0.3,0.6,0.5,0.9,0.8c1,0.9,2,1.9,2.9,2.8c0.3,0.3,0.5,0.6,0.9,0.8c0.3,0.2,0.6,0.5,0.8,0.8
	c-0.4,0.4-0.6,0.7-1.1,0.7c-0.3-0.3-0.7-0.4-0.9-0.7c-0.2-0.4-0.6-0.5-0.8-0.8c-2.6-2.6-5.2-5.2-7.9-7.8c-0.9-0.8-1.7-1.7-2.6-2.6
	c0-0.3-0.1-0.7,0.1-1c0.5,0.4,0.9,0.7,1.3,1.1c0.6,0.6,1.2,1.2,1.8,1.7c0.7,0.5,1.3,1.3,2,1.8c0.3,0.2,0.5,0.4,0.7,0.6
	c0.2-0.1,0.3-0.3,0.4-0.4v-2.3c-0.2-0.2-0.4-0.5-0.6-0.7c-0.4-0.4-0.8-0.8-1.3-1.2c-0.6-0.4-1-1-1.6-1.4c-0.8-0.6-1.4-1.3-2.1-2
	c-0.1-0.1-0.2-0.2-0.3-0.3c-0.5-0.1-0.6-0.5-0.8-0.9c0-0.5,0-1,0-1.6c-0.1-0.5,0.2-1,0.2-1.4c0-0.5,0-1.1,0-1.6c0-0.5,0-1.1,0-1.7
	c0.1-0.1,0.4-0.4,0.6-0.6c-0.1-0.3-0.4-0.6-0.8-0.7c-0.2,0.2-0.5,0.3-0.7,0.5c0.1,0.4,0.2,0.7,0.2,1c0,1.7,0,3.4,0,5.1
	c0,0.5-0.1,0.9-0.2,1.3c0.7,0.6,1.3,1.4,2.1,1.9c0.6,0.5,1.1,1.1,1.7,1.5c0.7,0.5,1.3,1.2,2,1.8c0.3,0.3,0.7,0.6,1.1,1
	c0,0.3,0,0.7,0,1.1c0,0,0,0.1-0.1,0.1c-0.1,0-0.1,0-0.2-0.1c-0.9-0.9-1.8-1.7-2.7-2.5c-0.7-0.6-1.4-1.3-2.1-1.9
	c-0.3-0.2-0.6-0.4-0.9-0.7c-0.1,0.2-0.3,0.4-0.4,0.6c0,0.5,0,0.9,0,1.4c0,0.5,0.2,0.9,0.5,1.2c0.8,0.7,1.5,1.5,2.3,2.2
	c1.2,1.1,2.4,2.4,3.6,3.6c2,1.9,3.9,3.8,5.9,5.8c0.2,0.2,0.4,0.4,0.8,0.4c0.6-0.4,1.2-0.9,1.8-1.4v-0.5c-0.4-0.3-0.7-0.6-1.1-0.9
	c-0.6-0.6-1.2-1.2-1.8-1.7C245.8,31.1,244.8,30,243.7,29"/>
<path id="XMLID_97_" class="st0" d="M137.5,15.4c-0.2,0.1-0.5,0.1-0.7,0.2c0,0.3-0.1,0.5,0.2,0.7h0.5c0.4,0.3,0.7,0.5,1,0.7h2
	c0.4-0.3,0.8-0.5,1.1-0.8c0.1-0.5,0.1-1,0.2-1.4c0-0.5,0-1,0-1.5c0-0.3,0-0.7-0.2-1c-0.2,0-0.4-0.3-0.7-0.1
	c-0.4,0.2-0.9,0.5-1.3,0.7h-0.8c-0.1-0.1-0.2-0.2-0.3-0.4c0.6-0.3,1.1-0.6,1.6-0.8c0.3,0.1,0.4-0.2,0.7-0.3c0.5-0.2,1-0.1,1.5-0.1
	l0.2,0.2c0,0.1,0,0.3,0,0.4c-0.1,1.3-0.2,2.6-0.2,3.9c0,0.3,0,0.7,0,1.1c-0.5,0.4-1,0.8-1.5,1.2h-3.8c-0.1-0.1-0.1-0.3-0.3-0.3
	c-0.5-0.8-1.3-1.4-1.9-2.2c-0.3-0.4-0.6-0.7-0.9-1.1c-0.2-0.2-0.3-0.4-0.6-0.5c-0.2,0.1-0.3,0.2-0.4,0.2c-0.1,0.2-0.1,0.3-0.2,0.5
	c0.2,0.1,0.4,0.3,0.6,0.4c0.2,0.1,0.4,0.3,0.6,0.4c0.2,0.2,0.3,0.4,0.5,0.6c0.8,0.8,1.6,1.7,2.4,2.5c1.1,0,2.2,0,3.4,0
	c0.6,0,1.1-0.1,1.5-0.5c0.2-0.2,0.4-0.4,0.6-0.5c0.1-0.1,0.3-0.2,0.4-0.3c0.2-0.5,0.3-1,0.3-1.5c0-1.3-0.2-2.5,0.1-3.8
	c0.1-0.4-0.1-0.8-0.2-1.2c-0.5-0.2-1.5-0.2-2.1-0.1c-0.6,0.1-1,0.4-1.6,0.6c-0.2,0.1-0.5,0.3-0.8,0.1V11c0.4-0.2,0.7-0.3,1.1-0.5
	c0.6-0.3,1.2-0.5,1.9-0.5c0.7,0,1.4,0,2.1,0l0.2,0.2v7.9c-0.7,0.6-1.5,1.1-2.2,1.7h-5.5c-1.8-1.9-3.6-3.7-5.3-5.6h-0.6
	c-0.1,0.1-0.2,0.2-0.2,0.2c-0.1,0.9,0,1.7-0.1,2.5c-0.1,0.8,0,1.7,0,2.6c0,0.2-0.1,0.4-0.1,0.7c0.1,0.1,0.2,0.2,0.3,0.3h0.7
	c0.1-0.2,0.2-0.4,0.3-0.5c-0.1-0.2-0.3-0.4-0.4-0.6v-4c0.1-0.1,0.2-0.1,0.3-0.2c0.6,0.7,1.2,1.2,1.7,1.9c0.6,0.7,1.3,1.3,2,2
	c0.3,0.3,0.5,0.5,0.7,0.8c0.2,0.3,0.6,0.5,1,0.5c1.8,0,3.7,0,5.5,0c1-0.7,2.1-1.3,2.7-2.4V9.6c-0.1-0.1-0.1-0.1-0.2-0.2
	c-1.2,0-2.4,0-3.5,0c-0.2,0-0.3,0-0.5,0.1c-0.6,0.2-1.1,0.5-1.7,0.7c-0.3-0.2-0.5-0.4-0.8-0.6h-2.1c-0.2,0.2-0.4,0.4-0.6,0.6h-2.3
	c-0.1,0.2-0.2,0.4-0.3,0.5l0.4,0.4c0.3-0.1,0.7-0.2,1-0.2c0.4,0,0.8,0,1.2,0c0.1,0.1,0.1,0.3,0.2,0.4c0,0.4,0.1,0.9-0.2,1.4h-2
	c-0.5-0.5-1.1-1.1-1.7-1.6c-0.5-0.5-0.9-0.9-1.4-1.4c-0.1-0.1-0.1-0.1-0.1-0.1h-0.6c-0.3,0.2-0.3,0.5-0.2,0.8c0.1,0,0.2,0.1,0.3,0.1
	c0.3,0.2,0.7,0.3,0.9,0.5c0.9,0.8,1.6,1.7,2.6,2.4h2.2c0.1,0.1,0.1,0.3,0.2,0.5v0.7c0.2,0.1,0.4,0.2,0.6,0.3h2
	c0.3-0.2,0.4-0.3,0.6-0.4v-0.7c0.4-0.1,0.9-0.1,1.2-0.2c0.4-0.1,0.7-0.5,1.2-0.4v2.6c-0.2,0.2-0.4,0.4-0.7,0.7h-1.5
	C138.4,16.2,138,15.8,137.5,15.4"/>
<path id="XMLID_96_" class="st0" d="M192.6,38.2c0.1-0.1,0.2-0.1,0.4-0.2c0.5-0.4,1.1-0.8,1.6-1.3c0.6-0.5,1.2-1,1.8-1.5
	c0.8-0.7,1.6-1.4,2.4-2.1c0.4-0.4,0.8-0.7,1.2-1.1c0.8-0.6,1.6-1.3,2.2-2c0.1-0.8-0.1-1.6,0.1-2.3c0.1-0.4,0-1,0-1.4
	c0-0.5-0.1-0.9-0.5-1.1c-0.2-0.1-0.3-0.4-0.6-0.5c-0.2-0.1-0.4-0.4-0.6-0.6c-0.2-0.2-0.4-0.4-0.6-0.6h-6.1c-0.2,0-0.4-0.1-0.5,0
	c-0.3,0.2-0.7,0.1-1,0.1l-0.2-0.2v-1.1c0.1-0.1,0.1-0.2,0.2-0.2c0.9,0.1,1.7-0.2,2.6,0.2c0.9-0.1,1.9,0.1,2.8-0.1
	c0.4-0.1,0.9-0.1,1.2,0.3h0.7c0.1-0.3,0.2-0.5,0.3-0.7c-0.2-0.2-0.3-0.3-0.5-0.5c-0.3,0.1-0.6,0.2-0.9,0.3c0,0,0,0.1,0,0.1h-7
	c-0.1,0.1-0.2,0.2-0.3,0.3v1.9c0.2,0.2,0.3,0.3,0.5,0.5c0.8,0,1.7,0,2.5,0c0.8,0,1.6,0,2.4-0.1c0.9-0.1,1.8,0,2.6,0
	c0.7,0.6,1.4,1.2,2.1,1.9c0,0.2,0,0.3,0,0.5c0.1,0.9-0.2,1.8-0.2,2.7c0,0.2,0,0.5,0,0.7c-0.7,0.8-1.5,1.4-2.3,2
	c-0.7,0.6-1.4,1.2-2.1,1.8c-0.5,0.5-1.2,0.9-1.7,1.4c-0.7,0.7-1.6,1.3-2.3,2c-0.1-0.1-0.2-0.1-0.2-0.2v-1.2c0.2-0.2,0.3-0.4,0.5-0.5
	c0.8-0.6,1.6-1.3,2.4-1.9c0.4-0.3,0.8-0.7,1.2-1.1c0.6-0.4,1.2-0.9,1.7-1.4c0.1-0.1,0.1-0.1,0.2-0.2c0.5-0.4,0.9-0.7,1.4-1.1
	c0.3-0.3,0.6-0.6,0.2-1.1c-0.1-0.1,0-0.3,0-0.4c0-0.3,0-0.6,0-0.9c-0.1-0.1-0.1-0.1-0.2-0.2h-0.6c-2.3,1.8-4.6,3.6-6.9,5.4
	c-0.1,0-0.2,0-0.3,0v-6.3c0.1-0.1,0.1-0.1,0.2-0.2c0.2,0,0.5-0.1,0.7,0.3c0,1.1,0,2.2,0,3.3c0,0.3-0.1,0.7,0.3,0.9
	c0.4,0,0.7-0.1,1-0.4c0.5-0.4,0.9-0.9,1.4-1.3c0.6-0.4,1-1,1.5-1.5c0.5-0.5,1.1-0.8,1.4-1.5c0-0.2,0.1-0.5-0.2-0.6
	c-0.4-0.1-0.7-0.1-1-0.2c0,0-0.1,0.1-0.1,0.1c-0.2-0.4-0.5,0-0.7,0c-0.1-0.1-0.2-0.1-0.3-0.2c-0.5,0.3-1.1,0-1.6,0.2
	c-0.1,0.1-0.1,0.1-0.2,0.2v0.7c-0.2,0.3-0.3,0.6-0.4,0.9c0.2,0.2,0.3,0.3,0.6,0.5c0.2-0.1,0.5-0.1,0.8-0.2c-0.1-0.5-0.1-1-0.2-1.4
	c0.7,0,1.4,0,2.1,0c0,0,0,0,0,0V26c-0.5,0.4-1,0.9-1.5,1.3c-0.6,0.6-1.2,1.2-1.9,1.7c0,0-0.1,0-0.1,0c-0.1-0.1-0.1-0.1-0.2-0.2
	c0-1,0-2.1,0-3.2c0-0.2,0-0.4-0.1-0.5c-0.4-0.1-0.8-0.3-1.1-0.2c-0.3,0.1-0.7,0-1.1,0.4c0,0.2-0.1,0.5-0.1,0.8c0,2.2,0,4.5,0,6.7
	c0.2,0.2,0.3,0.3,0.4,0.4h0.5c2.4-1.8,4.7-3.7,7-5.5c0.4,0.8,0.4,0.9-0.2,1.5c-0.4,0.4-0.8,0.8-1.2,1.1c-0.8,0.5-1.4,1.2-2.2,1.8
	c-0.5,0.3-0.9,0.8-1.3,1.2c-0.4,0.3-0.9,0.6-1.2,1c-0.4,0.4-1,0.7-1.2,1.2v0.7c0,0.2,0,0.5,0,0.7c0,0.2,0,0.4,0.1,0.6
	c0.1,0.1,0,0.4,0,0.6C192.4,38.1,192.5,38.2,192.6,38.2"/>
<path id="XMLID_95_" class="st0" d="M235.8,29.7c0.6,0.4,0.9,1,1.5,1.3c0.3,0.6,0.8,0.9,1.3,1.3c1.9,1.9,3.7,3.8,5.7,5.5
	c0,0,0,0.1,0.1,0.2c-0.1,0-0.2,0.1-0.3,0.2l0.1,0.1h-1.2c-0.7-0.8-1.5-1.6-2.2-2.4c-1-1.2-2.2-2.2-3.3-3.3c-0.2-0.2-0.4-0.3-0.6-0.4
	c0,0-0.1,0-0.1,0c-0.1,0.2-0.2,0.4-0.3,0.6c0,0.5,0,1.1,0,1.6c0,0.5,0.2,0.8,0.5,1.1c0.9,0.9,1.8,1.9,2.7,2.9
	c0.1,0.1,0.1,0.2,0.2,0.3h-1.1c-0.4-0.4-0.8-0.8-1.3-1.3V37c-0.2-0.2-0.3-0.4-0.4-0.6c-0.3,0.1-0.5,0.2-0.8,0.2
	c-0.1,0.3-0.1,0.5-0.2,0.7c0.2,0.2,0.3,0.4,0.4,0.5c1,0,1.4,0.9,2,1.3c0.8,0.5,1.5,0,2.2-0.1c0.2-0.1,0.3-0.1,0.5-0.2
	c-0.2-0.3-0.4-0.5-0.6-0.7c-0.9-0.9-1.8-1.8-2.7-2.7c-0.2-0.2-0.4-0.5-0.7-0.7c0.1-0.4-0.1-0.7,0.1-1.1c0.1,0.1,0.2,0.1,0.3,0.2
	c1.4,1.4,2.8,2.8,4.2,4.2c0.1,0.1,0.2,0.2,0.2,0.3c0.2,0.5,0.7,0.6,1.2,0.6c0.8,0,1.6,0,2.5,0c0.1-0.2,0.1-0.3,0.2-0.5
	c-0.3-0.3-0.5-0.5-0.7-0.7c-3-2.9-6-5.9-9-8.8c-0.2-0.2-0.5-0.3-0.6-0.5c-0.2,0.1-0.3,0.2-0.4,0.2c-0.1,0.4-0.1,0.9-0.2,1.3
	c-0.1,1.2,0,2.4-0.1,3.6c-0.2,1.2,0,2.5,0,3.8c0,0.3,0.1,0.5,0.3,0.7c0.8,0.6,1.4,1.3,2.1,1.9c0.4,0.4,0.8,0.6,1.4,0.6
	c3.2,0.1,6.4-0.3,9.7-0.2c0.2,0,0.4,0,0.6,0c0.1,0,0.2,0,0.3,0c0.2-0.1,0.4-0.2,0.6-0.4c0.1-0.1,0-0.2,0-0.3
	c-1.3-1.2-2.5-2.6-3.9-3.8c-1.3-1.1-2.5-2.5-3.8-3.6c-1.8-1.6-3.4-3.3-5.1-4.9c-0.4-0.4-0.7-0.8-1.3-1c-0.1,0-0.2-0.2-0.2-0.3
	c-0.4,0-0.8,0.1-1.3,0.1c0,0-0.1-0.2-0.2-0.2H233c-0.1,0.1-0.2,0.2-0.3,0.4v0.7c0.2,0.1,0.5,0.2,0.7,0.4c0.3-0.2,0.5-0.3,0.8-0.5
	h1.3c0.1,0.1,0.2,0.3,0.3,0.4c0.4,0.4,0.8,0.7,1.2,1c1.6,1.5,3.1,3.1,4.7,4.6c2,1.8,3.9,3.8,5.8,5.6c0.1,0.1,0.2,0.2,0.3,0.2
	c0.3,0.1,0.4,0.4,0.6,0.6c0,0,0,0.1,0,0.1l-0.2,0.2h-0.7c-2.4,0-4.8,0-7.2,0c-0.6,0-1.2,0.1-1.8,0.1c-0.3,0-0.6-0.1-0.8-0.3
	c-0.8-0.7-1.6-1.4-2.3-2.2c0-0.3,0-0.5,0-0.7c-0.1-2.2,0.3-4.5,0.1-6.5C235.7,30,235.7,29.9,235.8,29.7"/>
<path id="XMLID_94_" class="st0" d="M222.7,43.3c-1-0.1-1.8-0.2-2.7-0.2c-1,0-2,0-2.9,0c-0.3,0-0.6,0-0.8,0.1
	c-0.9,0.3-1.6,1.1-1.6,2c0,0.9,0,1.7-0.1,2.6c-0.2,1,0.1,2-0.2,3c0.1,1.5-0.3,2.9-0.1,4.4c-0.1,0.1-0.2,0.2-0.3,0.2v0.6
	c0.2,0.1,0.4,0.2,0.6,0.3c0.2-0.2,0.5-0.4,0.7-0.5c-0.1-0.2-0.2-0.3-0.3-0.6v-0.8c0-0.3,0-0.6,0-0.9c0-0.3,0.2-0.6,0.2-0.8
	c0-0.5,0-0.9,0-1.4c0-0.5,0-0.9,0.1-1.4c0.1-0.4,0-0.9,0-1.3c0.1-1.3,0.1-2.7,0.2-4.1c0.3-0.2,0.6-0.5,1-0.8c1.8,0,3.6,0,5.3,0
	c0.2,0,0.5-0.1,0.6,0.2v1.8c-0.2,0-0.3,0-0.4-0.1c-0.3-0.3-0.7-0.6-1-0.9c-0.2-0.2-0.5-0.3-0.8-0.3c-0.6,0-1.1,0-1.6,0
	c-0.2,0.2-0.5,0.3-0.3,0.7c0.6,0.6,1.3,1.2,2,1.8c0,0,0.1,0.1,0.1,0.1c0.5,0.2,0.7,0.7,1.1,1c0.4,0.3,0.8,0.7,1.1,1
	c0,0.4,0,0.7-0.1,1c-0.4-0.3-0.8-0.6-1.1-0.9c-1.2-1.1-2.3-2.2-3.5-3.4c-0.1-0.1-0.2-0.2-0.3-0.3c-0.3-0.2-0.5-0.6-1-0.5l-0.4,0.4
	c-0.1,0.4-0.1,0.8-0.2,1.3c0,0.4,0,0.9,0,1.3c0.5,0.5,1,1,1.5,1.4c0.5,0.4,0.9,0.8,1.4,1.1c0.4,0.3,0.8,0.8,1.3,1.1
	c0.8,0.6,1.6,1.3,2.3,2v0.8c0,0-0.1,0-0.1-0.1c0,0.1-0.1,0.2-0.2,0.4c-2-1.7-4-3.3-6-4.9c-0.1,0.2-0.2,0.3-0.3,0.5v7.2v0.1
	c0.2,0.3,0.3,0.6,0.5,0.8c0.4,0.4,0.8,0.7,1.3,1.1c0.4-0.1,0.6-0.3,0.6-0.8c-0.1-1.4,0.2-2.8,0.2-4.2c0,0,0-0.1,0-0.1
	c0.1-0.1,0.2-0.2,0.3-0.3v-0.4c-0.1-0.2-0.3-0.3-0.4-0.5c-0.6,0-0.7,0.1-0.9,0.5c0.1,0.4,0.3,0.7,0.2,1.1c0,0.4,0,0.7,0,1.1
	c0,0.3,0,0.6-0.1,0.9c-0.1,0.3-0.1,0.7-0.1,1c0,0,0,0.1-0.1,0.1h-0.3l-0.6-0.6v-0.5c0-1.7,0-3.4,0-5.1c0-0.2-0.1-0.5,0.2-0.6
	c0.3,0.2,0.5,0.4,0.8,0.7c0.4,0.4,0.8,0.7,1.2,1.1c0.9,0.7,1.7,1.4,2.6,2.1c0.4,0.3,0.8,0.6,1.3,0.5c0.1-0.3,0.2-0.5,0.3-0.8
	c0.1-0.6-0.1-1.2-0.2-1.7c-0.5-0.5-1.1-1-1.7-1.5c-0.6-0.5-1.2-0.9-1.7-1.4c-0.4-0.3-0.7-0.7-1.1-1c-0.6-0.5-1.2-1-1.8-1.4v-1.3
	c0.1-0.1,0.2-0.2,0.3-0.2c0.3,0.3,0.5,0.5,0.7,0.7c0.2,0.3,0.6,0.3,0.6,0.6c0.6,0.3,0.9,0.8,1.3,1.2c0.4,0.4,0.9,0.8,1.3,1.2
	c0.4,0.4,0.8,0.8,1.3,1.1c0.1,0.1,0.3,0.2,0.5,0.2c0.1-0.1,0.3-0.3,0.4-0.4v-2.1c-0.6-0.5-1.2-1.1-1.8-1.6c-0.7-0.6-1.5-1.2-2.1-1.8
	c0.1-0.1,0.1-0.1,0.2-0.2h0.6c0.7,0.6,1.3,1.1,1.9,1.6c0.2,0.2,0.5,0.3,0.8,0.1c0.1-0.2,0.2-0.4,0.2-0.6c0-0.9,0-1.9,0-2.8
	C222.9,43.5,222.8,43.4,222.7,43.3"/>
<path id="XMLID_93_" class="st0" d="M222.9,15c0.1-0.3,0.3-0.5,0.1-1c-2-1.6-4-3.3-5.9-4.9h-15.4V10c0.2,0.2,0.3,0.4,0.5,0.6
	c0.4,0.4,0.8,0.8,1.1,1.3c0.6,0.7,1.3,1.4,1.9,2.1c0.2,0.2,0.5,0.3,0.6,0.4c0.5,0,0.8-0.1,1.1-0.1c0.3,0,0.6,0,0.8-0.2
	c0.1-0.1,0.3-0.1,0.4-0.2c0.1-0.1,0-0.2,0-0.3c-0.4-0.4-0.7-0.7-1-1c-0.3-0.3-0.6-0.7-0.9-1.1c0-0.1-0.1-0.2-0.1-0.3h9.3
	c0.3,0.1,0.5,0.2,0.7,0.3c0.2,0.1,0.4,0.4,0.5,0.5c0.1,0.1,0.1,0.1,0.2,0.2c0.4,0.3,0.7,0.6,1.1,0.8c0.2,0.1,0.3,0.4,0.5,0.4
	c0.3,0.5,0.9,0.6,1.1,1.2c-0.7,0.8-1.5,1.6-2.2,2.4c-0.4,0.5-0.9,0.8-1.3,1.4c-0.1,0.2-0.5,0.3-0.7,0.4c-0.3-0.2-0.5-0.4-0.5-0.8
	l3.5-3.5c-0.4-0.5-1-1-1.6-1.3c-0.3,0.2-0.7,0.4-1,0.7c-1,1-2.1,1.9-3.1,2.9c-0.2,0.2-0.4,0.3-0.6,0.5c-0.2,0-0.5,0-0.8,0
	c0.4-0.5,0.7-1,1.1-1.4c0.8-0.9,1.7-1.7,2.6-2.6c0.2-0.1,0.3-0.3,0.5-0.4c0.4,0,0.6-0.3,0.7-0.6c-0.1-0.2-0.2-0.3-0.3-0.5
	c-0.2,0-0.4,0-0.6,0c-0.1,0.1-0.2,0.2-0.3,0.3c-0.5,0.6-0.9,1.2-1.5,1.8c-1,1-1.9,1.9-2.9,2.9c-0.3,0.3-0.5,0.6-0.4,1.1h2.3
	c0.7-0.6,1.3-1.1,1.9-1.7c0.8-0.7,1.5-1.6,2.4-2.2c0.3,0.2,0.6,0.3,0.7,0.7c-0.1,0.1-0.2,0.2-0.2,0.3c-0.1,0.3-0.4,0.1-0.5,0.4
	c0,0.1-0.2,0.2-0.3,0.4c-0.1,0.2-0.4,0.2-0.5,0.4c-0.1,0.1-0.2,0.4-0.4,0.5c-0.3,0.1-0.3,0.3-0.4,0.4c-0.2,0.1-0.4,0.3-0.6,0.4
	c-0.2,0.2-0.3,0.4-0.5,0.5c-0.1,0-0.1,0.2-0.1,0.4c0.6,0.6,1.2,1.1,1.9,1.4c1-1.1,2-2.1,2.9-3.1c0.6-0.7,1.3-1.4,1.9-2.1
	c-0.1-0.2-0.2-0.4-0.4-0.6c-0.6-0.5-1.2-0.9-1.8-1.4c-0.8-0.6-1.6-1.3-2.4-2c-1.3,0-2.5,0-3.8,0c-1.3,0-2.6,0.1-3.9-0.1
	c-0.8-0.1-1.6,0-2.3,0c-0.3,0-0.6,0.1-0.8,0.1c-0.1,0.2-0.1,0.3-0.2,0.4c0.3,0.4,0.6,0.8,0.9,1.1c0.3,0.4,0.7,0.8,1.1,1.2
	c-0.1,0.1-0.2,0.2-0.3,0.3h-1c-0.6-0.6-1.2-1.2-1.7-1.9c-0.5-0.7-1.2-1.2-1.6-2h14.2c0.3,0.3,0.6,0.6,1,0.8c0.7,0.4,1.2,1,1.9,1.5
	c0.6,0.4,1.1,1,1.7,1.4c0.2,0.1,0.3,0.4,0.4,0.6c-0.1,0.2-0.2,0.4-0.3,0.5C221.9,15.1,222.2,15.3,222.9,15"/>
<path id="XMLID_92_" class="st0" d="M263.2,49.6c-0.2-0.2-0.4-0.2-0.5-0.4c-0.8-0.7-1.6-1.5-2.4-2.2c-0.5-0.5-1.1-1-1.6-1.5
	c-0.8-0.7-1.6-1.5-2.3-2.2c-0.6-0.5-1.1-1.1-1.7-1.6c-0.9-0.7-1.6-1.6-2.5-2.3c-0.5-0.4-0.9-0.9-1.3-1.3c-0.2-0.2-0.5-0.4-0.8-0.6
	c0.2-0.6,0.6-0.8,1-0.8c1.5,1.3,2.9,2.6,4.4,3.9h0.5c0.3-0.3,0.4-0.6,0.4-1c0-1.5,0-3.1,0-4.6c0-0.5,0.3-1,0.2-1.5c0,0,0,0,0-0.1
	l0.3-0.3v-0.4c0,0-0.1,0.1-0.1,0.1c-0.1-0.2-0.2-0.3-0.3-0.5c-0.5,0-0.8,0.1-1,0.4c0,0.2-0.1,0.4,0.1,0.6c0.2,0.2,0.2,0.5,0.2,0.8
	c0,0.8-0.2,1.7-0.2,2.5c0.1,0.9,0,1.9,0,2.8c-0.1,0.1-0.2,0.2-0.2,0.2c-0.3-0.2-0.6-0.5-0.9-0.7c-0.9-0.8-1.8-1.7-2.7-2.5
	c-0.2-0.2-0.5-0.4-0.8-0.7c-0.6,0.5-1.2,1-1.7,1.5v0.5c1.2,1.1,2.4,2.3,3.6,3.4c0.9,0.8,1.8,1.7,2.7,2.5c0.2,0.2,0.6,0.2,0.6,0.6
	c0.8,0.5,1.3,1.3,2.1,1.8c0.8,0.6,1.4,1.4,2.1,2c0.9,0.7,1.7,1.6,2.6,2.4c0.1,0.1,0.1,0.1,0.1,0.1h0.6c0.2-0.1,0.3-0.3,0.4-0.4v-2.5
	c-0.2-0.2-0.4-0.6-0.7-0.7c-0.2-0.1-0.2-0.3-0.4-0.4c-0.2-0.1-0.3-0.2-0.5-0.4c-0.6-0.6-1.2-1.2-1.9-1.8c-0.9-0.7-1.6-1.6-2.5-2.3
	c0,0,0-0.1-0.1-0.2c0.1,0,0.2-0.1,0.4-0.2h1c1.3,1.2,2.7,2.4,4,3.6h0.5c0.1-0.2,0.2-0.4,0.3-0.5c0,0-0.1-0.1-0.1-0.1
	c0-0.9,0-1.7,0-2.6c-0.2-0.3-0.3-0.5-0.5-0.6c-0.5-0.3-0.8-0.7-1.2-1.1c0.1-0.3,0.2-0.5,0.2-0.8c0-0.9,0-1.7,0-2.6
	c0-0.8,0.1-1.7,0.1-2.5c0-0.2,0-0.4,0-0.6h0.9v5.5l-0.3,0.3V40c0.2,0.3,0.3,0.4,0.3,0.5h0.8c0.1-0.2,0.2-0.4,0.4-0.6
	c-0.4-0.3-0.5-0.7-0.5-1.2c0-1.5,0-3,0-4.5c0-0.4-0.1-0.8-0.4-1.1h-1.5c-0.2,0.1-0.4,0.2-0.5,0.3c-0.1,1.1,0,2.1-0.1,3.1
	c-0.2,1,0,2.1,0,3.2c0,0.1,0,0.2,0,0.3c-0.2,0.2-0.1,0.5-0.1,0.8c0.6,0.5,1.1,1.1,1.7,1.6c-0.1,0.7,0.1,1.2-0.1,1.9
	c-1.2-1.1-2.4-2.1-3.6-3.1c-1,0.1-2-0.2-3,0.2v0.4c0.4,0.3,0.7,0.6,1,0.9c0.6,0.5,1.1,1.1,1.7,1.6c0.9,0.8,1.8,1.8,2.7,2.5
	c0.4,0.3,0.6,0.6,1,1V49.6z"/>
<path id="XMLID_91_" class="st0" d="M163.2,31.4c0.5,0.1,1-0.1,1.6-0.1c2.1,0,4.2-0.1,6.3,0c2.1,0.1,4.2-0.2,6.4-0.2
	c1.1,0,2.2,0,3.3,0c0.1,0.1,0.2,0.2,0.3,0.4c0.3-0.1,0.6-0.2,0.7-0.2c0.1-0.3,0.2-0.5,0.2-0.7c-0.1-0.2-0.2-0.4-0.4-0.6H181
	c-0.3,0.2-0.5,0.4-0.8,0.6c-2.2,0-4.4,0-6.6,0c-2.2,0-4.4-0.1-6.6,0.1c-1.2,0.1-2.4,0-3.6,0c-0.4,0-0.7,0.1-1.1,0.4
	c0,0.3,0,0.6,0,0.8c-0.1,0.5,0.2,0.9,0.5,1.2c0.4,0,0.8,0,1.3,0c0.5,0.1,0.9-0.2,1.3-0.2c1.5,0,3,0,4.5,0c1.5,0,2.9,0,4.4,0
	c1.5,0,2.9,0.1,4.4-0.1c0.9-0.1,1.9,0,2.8,0c0.1,0.1,0.1,0.2,0.2,0.2c-0.1,0.3,0.1,0.6-0.3,0.8c-1.4,0-2.8,0-4.2,0
	c-1.4,0-2.8,0.1-4.2,0.1c-3.1,0-6.2,0-9.3,0c-0.5,0-0.9,0.2-1.2,0.5v1.2c0.2,0.3,0.3,0.4,0.3,0.5c1.1,0,2.2,0,3.3,0
	c1,0,2.1,0.1,3.1-0.1c2,0,4,0,6,0c2,0,4,0.1,5.9-0.2c0.2,0.1,0.3,0.2,0.4,0.2c0,1,0,2,0,3c0,0.4,0,0.8-0.2,1.2
	c-0.2,0.2-0.1,0.5,0.1,0.7h0.7c0.1-0.2,0.2-0.4,0.3-0.5c-0.2-0.3-0.3-0.6-0.3-0.9c0-1.3,0-2.6,0-3.9c-0.1-0.1-0.1-0.1-0.2-0.2
	c-3.5,0-6.9,0-10.4,0c-1.3,0-2.6,0-3.9,0.1c-1.4,0.2-2.8,0-4.1,0c-0.1,0-0.3-0.1-0.4-0.2v-0.7c0.4,0,0.8,0,1.1,0
	c0.4,0,0.7-0.1,1.1-0.1c1.7,0,3.4-0.1,5.1,0c1.7,0.1,3.4-0.2,5.1-0.2c0.8,0,1.5,0,2.3,0h4.4c0.4-0.6,0.2-1.3,0.2-1.9
	c-0.3-0.3-0.6-0.4-1-0.4c-0.9,0-1.8-0.1-2.7,0.2h-15.4c-0.1-0.2-0.2-0.4-0.2-0.6C163,31.6,163,31.5,163.2,31.4"/>
<path id="XMLID_90_" class="st0" d="M193,42.5c0.6-0.5,1.1-1,1.7-1.4c0.4-0.2,0.6-0.6,0.9-0.8c0.9-0.6,1.7-1.4,2.6-2
	c0.9-0.7,1.8-1.5,2.7-2.2c0.1-0.1,0.3-0.1,0.5-0.1v1.5c-0.4,0.3-0.8,0.6-1.2,1c-0.4,0.4-0.8,0.7-1.2,1.1c-0.8,0.5-1.4,1.2-2.2,1.8
	c-0.7,0.5-1.4,1.2-2.1,1.8c-0.3,0.3-0.6,0.7-1,0.8c-0.4,0.5-1,0.7-1.3,1.4c0.1,0.7,0.1,1.4,0.2,2.2l0.2,0.2h0.4
	c2.7-2.2,5.5-4.3,8.2-6.5c0.1,0.1,0.1,0.2,0.2,0.2c-0.1,0.5-0.1,1-0.2,1.6c-0.9,0.7-1.8,1.4-2.6,2.3c0,0,0,0-0.1,0.1
	c-0.9,0.6-1.7,1.5-2.6,2.1c-0.7,0.5-1.2,1.1-1.9,1.7c-0.5,0.4-0.8,0.6-1.5,0.8c-0.3,0.1-0.6,0.2-0.7,0.5v0.8c0.6,0.5,0.9,0.5,1.6,0
	c0.1-0.3,0.2-0.5,0.2-0.9c0.5-0.5,1.1-1,1.7-1.5c0.2-0.2,0.4-0.4,0.6-0.5c0.3-0.2,0.5-0.5,0.7-0.7c0.8-0.6,1.6-1.3,2.3-2
	c0.1-0.1,0.1-0.1,0.2-0.2c1-0.7,1.9-1.6,2.7-2.4c-0.1-0.9,0.3-1.8,0.1-2.7l-0.2-0.2h-0.6c-2.7,2.1-5.4,4.4-8.1,6.4
	c-0.1-0.1-0.2-0.2-0.3-0.3v-1c3-2.4,5.9-4.9,8.9-7.3c0.3-1,0.1-2,0.2-3c-0.5-0.3-0.7-0.3-1.1,0c-0.2,0.2-0.4,0.5-0.6,0.6
	c-0.5,0.3-0.9,0.6-1.3,1c-0.3,0.3-0.7,0.7-1.1,0.9c-0.7,0.4-1.3,1.1-2,1.6c-0.4,0.3-0.7,0.6-1.1,0.9c-0.6,0.4-1.1,0.8-1.5,1.2H193
	v-1c0.4-0.3,0.7-0.6,1.1-0.9c0.9-0.7,1.8-1.5,2.8-2.3c0.5-0.4,1.1-0.9,1.6-1.3c0.8-0.6,1.5-1.2,2.2-1.8c0.3-0.3,0.7-0.5,1.1-0.7
	c0.1-0.1,0.3-0.2,0.4-0.2v-0.7h-0.6c-0.7,0.6-1.3,1.2-2,1.8c-0.7,0.6-1.5,1.1-2.2,1.7c-0.3,0.3-0.6,0.6-1,0.8
	c-0.8,0.5-1.5,1.2-2.3,1.8c-0.4,0.3-0.7,0.7-1.1,0.9c-0.4,0.2-0.7,0.5-0.9,1c0.1,0.6,0.1,1.3,0.2,1.9
	C192.5,42.6,192.8,42.5,193,42.5"/>
<path id="XMLID_89_" class="st0" d="M160.1,65.4h-6.4c-0.1-0.1-0.1-0.1-0.2-0.2c0-1.6,0-3.3,0-4.9c0-0.2,0.1-0.3,0.1-0.5
	c0.4,0.1,0.7,0.1,1,0.2c0,0,0.1-0.1,0.3-0.2c0.1,0.2,0.2,0.4,0.3,0.5c-0.3,0.3-0.5,0.7-0.7,0.9c-0.5,0.5-0.8,1-0.7,1.7
	c0.1,0.2,0.2,0.4,0.3,0.5c0.2,0,0.4-0.1,0.5,0c0.5,0.3,0.8,0.1,1.1-0.2c0.3-0.3,0.5-0.6,0.7-0.8c0.7-0.9,1.6-1.7,2.3-2.5
	c0,0,0.1,0,0.2-0.1v4c-0.1,0.2-0.2,0.3-0.3,0.5c-0.5-0.2-1.1,0.2-1.6-0.3c0.3-0.3,0.5-0.6,0.7-0.8c0.3,0,0.6,0.1,0.7-0.4
	c-0.1-0.3-0.1-0.7-0.6-0.7c-0.7,0.7-1.4,1.4-2,2.1c-0.1,0.1-0.2,0.3-0.2,0.4c0.1,0.1,0.2,0.3,0.3,0.4c0,0,0.1-0.1,0.1-0.1
	c1.1,0,2.1,0,3.2,0c0.3-0.3,0.4-0.6,0.4-1c0-0.8,0-1.6,0-2.3c0-0.2,0-0.4,0.1-0.6c0.2-0.4,0.1-0.9-0.1-1.3c-0.1-0.3-0.3-0.7-0.8-0.7
	c-0.2,0.1-0.4,0.2-0.5,0.4c-0.1,0.3-0.4,0.5-0.6,0.7c-0.2,0.3-0.6,0.5-0.7,0.8c-0.2,0.4-0.6,0.6-0.8,0.9c-0.2,0.4-0.6,0.7-0.9,1
	c-0.1,0.1-0.1,0.1-0.1,0.1h-0.7c-0.1-0.1-0.1-0.3-0.2-0.4c0.2-0.3,0.4-0.6,0.6-0.8c0.4-0.5,0.8-0.9,1.1-1.4c0.1-0.2,0.3-0.4,0.2-0.6
	c0-0.1-0.1-0.2-0.2-0.3h-2.7c-0.2,0.2-0.5,0.3-0.7,0.5c0.1,1-0.1,1.9,0.1,2.9c0,0-0.1,0.1-0.1,0.2c0.1,0.1,0.1,0.3,0.2,0.4
	c-0.1,0.1-0.1,0.1-0.2,0.2c0,0,0.1,0.1,0.1,0.1c0,0.8,0,1.5,0,2.3c0.4,0.3,0.8,0.4,1.2,0.4c2.1,0,4.1,0,6.2,0
	c0.2-0.2,0.5-0.3,0.7-0.5c0-1.6,0-3.1,0-4.6c0-0.3,0-0.6,0.1-0.9c0.1-0.2,0.1-0.6-0.1-0.8c-0.1-0.1,0-0.3-0.1-0.4
	c-0.2-0.3-0.4-0.6-0.7-0.9c-0.3-0.3-0.6-0.5-1-0.5c-1,0.1-2.1-0.1-3.1,0.1c-0.8,0.1-1.6,0-2.4,0c-0.1-0.1-0.2-0.3-0.2-0.4
	c0-0.7,0-1.4,0-2c0-0.7-0.3-1.4-0.2-2.1c0-0.3-0.1-0.5,0.1-0.8c-0.3-0.5-0.1-1.1-0.1-1.7c0-0.3,0.1-0.5,0.3-0.7l2.9,2.9
	c0.5,0,0.8-0.1,1-0.2c0.4-0.4,0.9-0.8,1.3-1.2c0.6-0.6,1.1-1.1,1.8-1.5v-0.6c-0.1-0.1-0.3-0.1-0.4-0.2c-0.4,0.3-0.6,0.7-1,1
	c-0.7,0.6-1.4,1.3-2.1,1.9h-0.6c-1.1-1.1-2.2-2.2-3.3-3.3c-0.1,0-0.3,0.1-0.4,0.3c-0.1,0.4-0.2,0.8-0.2,1.1c0,2.3,0,4.7,0,7
	c0,0.3,0,0.6,0.2,0.9h0.8h1h1h0.9h1c0.3,0,0.7,0.1,1,0c0.3-0.1,0.6,0.1,0.8,0c0.3,0.3,0.6,0.6,0.9,0.8v6.1L160.1,65.4z"/>
<path id="XMLID_88_" class="st0" d="M263.1,53.7c-0.3,0-0.4-0.4-0.7-0.5c-0.8-0.6-1.5-1.3-2.4-1.9c-0.5-0.3-0.9-0.8-1.3-1.2
	c-0.8-0.8-1.8-1.4-2.6-2.2c-0.3-0.3-0.6-0.4-1-0.3v2.3c0.1,0.3,0.2,0.5,0.3,0.6c0.1,0.1,0.3,0.2,0.4,0.3c0.4,0.3,0.8,0.7,1.2,1
	c1,0.8,1.9,1.7,2.8,2.5c0.4,0.4,0.8,0.7,1.2,1.1c0.8,0.6,1.5,1.4,2.3,1.9c0,1.1,0,2.2,0,3.2c-0.1,1.1,0.2,2.1,0.2,3.2
	c0,0.3,0.1,0.7-0.3,0.9h-1h-0.9h-1h-1c-0.3,0-0.7,0-1,0c-0.3-0.1-0.5,0.2-0.8,0c-0.2-0.2-0.6,0.4-0.8,0c-0.1,0.1-0.1,0.1-0.2,0.2
	c-0.2-0.1-0.3-0.2-0.5-0.2V53.1c0.1-0.1,0.2-0.2,0.3-0.2v-0.6c-0.3-0.2-0.6-0.2-1-0.2c-0.1,0.1-0.2,0.2-0.4,0.4v0.3
	c0.1,0.1,0.2,0.2,0.3,0.2c0,0.8-0.1,1.6,0.2,2.4c-0.3,0.8-0.1,1.6-0.1,2.4c0,0.8,0,1.6,0,2.4v2.4v2.4l0.4,0.4c1.5,0,3,0,4.5,0
	c1.3,0,2.6-0.1,3.9-0.2c0,0,0.1-0.1,0.2-0.2c0-0.1,0-0.2,0-0.3c0.1-0.6-0.2-1.3-0.2-1.9c0-1.7,0-3.4,0-5.1c0-0.6-0.2-1.1-0.8-1.4
	c-0.1-0.1-0.2-0.1-0.3-0.2c-0.6-0.6-1.2-1.1-1.9-1.7c-0.1-0.1-0.1-0.1-0.2-0.2c-0.7-0.4-1.1-1-1.7-1.5c-0.5-0.4-0.9-0.9-1.4-1.2
	c-0.7-0.5-1.2-1.2-2-1.6c0-0.4,0-0.8,0-1.2c0.2,0.1,0.3,0.1,0.4,0.2c0.7,0.6,1.4,1.2,2.1,1.8c0.6,0.5,1.1,1.1,1.7,1.5
	c0.4,0.3,0.7,0.7,1.1,1c0.7,0.5,1.2,1.2,2,1.6h0.5c0.1-0.1,0.1-0.1,0.2-0.2v-2c-0.5-0.4-1.1-0.8-1.5-1.3c-0.6-0.6-1.2-1.2-1.9-1.8
	c-0.9-0.7-1.6-1.5-2.5-2.3c-0.1-0.1-0.1-0.1-0.2-0.2c-0.6-0.3-1-0.7-1.2-1.3c0-0.1-0.1-0.1-0.2-0.2h-0.6c0,0,0.1,0.1,0.1,0.1
	c-0.2,0.2-0.4,0.4-0.6,0.6c0.1,0.1,0.1,0.3,0.2,0.4c0.2,0.1,0.5,0.1,0.8,0.2c0.3,0.3,0.7,0.6,1.1,1c0.4,0.4,0.8,0.7,1.2,1.1
	c0.7,0.6,1.4,1.2,2,1.9c0.1,0.1,0.2,0.3,0.4,0.4c0.3,0.1,0.5,0.4,0.7,0.6c0.2,0.2,0.4,0.5,0.7,0.6c0.1,0.4,0.5,0.3,0.6,0.7
	C263.2,53.1,263.2,53.3,263.1,53.7C263.2,53.6,263.1,53.6,263.1,53.7"/>
<path id="XMLID_87_" class="st0" d="M237.9,52.6c-1.6-1.2-3-2.6-4.5-4c0-0.2,0-0.4,0.1-0.8c0.8,0.7,1.5,1.3,2.2,1.9
	c0.3,0.3,0.7,0.6,1,0.8c0.1,0.1,0.2,0.1,0.2,0.1c0.2-0.1,0.3-0.2,0.4-0.3c-0.1-0.4,0.1-0.9-0.1-1.2c0.4-0.4-0.3-0.8,0-1.2
	c-0.4-0.3-0.7-0.5-1-0.8c-0.5-0.4-1-0.9-1.4-1.3c-0.3-0.2-0.5-0.5-0.9-0.7c-0.6-0.3-0.6-0.8-0.7-1.4h0.4c0.4,0.3,0.7,0.6,1.1,1
	c0.4,0.3,0.7,0.7,1.2,1c0.4,0.2,0.6,0.8,1.2,0.8c-0.1-0.9,0.1-1.9-0.2-2.8c-0.5-0.5-1.1-1-1.6-1.5c-0.1,0-0.1,0-0.2-0.1
	c-0.6-0.5-1.3-1-1.5-1.6c-0.5-0.5-0.8-0.3-1.2-0.1c-0.1,0.2-0.1,0.3-0.2,0.4c0.1,0.2,0.2,0.3,0.2,0.4c0.2,0.1,0.5,0.1,0.8,0.2
	c0.3,0.2,0.6,0.5,0.9,0.8c0.8,0.6,1.5,1.4,2.3,2c0,0.3,0.1,0.6-0.2,0.8c-0.2-0.1-0.4-0.2-0.5-0.3c-0.7-0.6-1.5-1.3-2.2-1.9
	c-0.3-0.2-0.5-0.5-0.9-0.4c-0.1,0.1-0.1,0.1-0.3,0.3c0.1,0.7,0.1,1.5,0.2,2.3c0.6,0.6,1.2,1.2,1.9,1.7c0.7,0.5,1.4,1,2,1.7
	c0,0.3,0,0.6-0.1,1.1c-1.1-0.9-2.2-1.7-3.1-2.6h-0.6c-0.1,0.2-0.1,0.4-0.2,0.6c0.3,0.4,0.1,1,0.2,1.5c0.2,0.2,0.3,0.4,0.6,0.7
	c0.3,0.3,0.6,0.5,0.9,0.8c0.5,0.5,1,0.9,1.4,1.4c0.4,0.5,1.1,0.7,1.3,1.3c0,0.1,0.1,0.2,0.2,0.2c0.5,0.1,0.7,0.5,1.1,0.8
	c0.1-0.1,0.3-0.1,0.5-0.2c0-0.7,0-1.4,0.1-2.1c0.1-0.6,0-1.2,0-1.8s0-1.2,0-1.8c-0.1-0.6,0.2-1.2,0.2-1.8c0-0.9,0-1.7,0-2.6
	c-0.3-0.4-0.6-0.8-0.9-1.2c-0.3-0.3-0.6-0.6-0.8-0.9c-0.1-0.2-0.3-0.2-0.5-0.4c-0.2-0.2-0.4-0.3-0.5-0.5c-0.1-0.2-0.5-0.1-0.4-0.4
	c-0.3,0-0.4-0.3-0.6-0.4c-0.2-0.2-0.3-0.3-0.5-0.5l-1.2-1.2c0-0.1,0.1-0.3,0-0.4c-0.3-0.3-0.2-0.7-0.1-1c0.2-0.4,0.1-0.9,0.1-1.3
	c0-0.9,0-1.7,0-2.6c-0.1-1,0.2-2.1,0.2-3.1c0-0.1,0-0.2,0-0.2c0.3-0.3,0-0.6-0.1-1c-0.3-0.1-0.6-0.1-1-0.2c-0.1,0.3-0.2,0.5-0.3,0.7
	c0.1,0.2,0.1,0.3,0.2,0.5c0.1,0.1,0.3,0.2,0.4,0.3c0,0.4,0,0.7,0,1c0,0.3-0.1,0.6-0.1,0.9c0,2.2,0,4.4,0,6.6
	c1.9,1.7,3.8,3.5,5.4,5.4v1.2c0,0.4,0,0.8,0,1.1c0,0.4-0.1,0.8-0.1,1.1c0,1.3,0,2.6,0,3.9v1.1C238,52.5,238,52.5,237.9,52.6"/>
<path id="XMLID_86_" class="st0" d="M203.9,18.5c-0.5,0.2-0.7,0.5-1,0.7c-0.3,0.2-0.6,0.6-0.9,0.8c-0.2,0.2-0.4,0.4-0.7,0.4
	c-0.2,0-0.3,0.2-0.5,0.3v0.4c0.2,0.2,0.3,0.4,0.3,0.5h0.7c0.1-0.3,0.2-0.5,0.4-0.8c0,0,0,0-0.1,0c0.7-0.6,1.3-1.1,2-1.7
	c0.2,0,0.3,0,0.4,0c1.7,0.1,3.4-0.1,5.1,0.1c1,0.1,2.1,0,3,0c1.1,0.8,2,1.5,3,2.3c0.4,0,0.4,0,0.6-0.2c0.3-0.2,0.5-0.5,0.7-0.8
	c1.2-1.3,2.6-2.4,3.7-3.8c0,0,0.1-0.1,0.1-0.1h0.5c0.2,0.2,0.6,0.4,0.3,0.7c-1.8,1.9-3.7,3.9-5.6,5.8c-0.3,0.3-0.5,0.7-0.4,1.2
	c0.2,0.2,0.4,0.4,0.6,0.6c0.4,0.3,0.8,0.3,1.2,0c0.1-0.1,0.2-0.2,0.3-0.3c0.7-0.7,1.4-1.4,2.1-2.1c0.2-0.2,0.4-0.3,0.6-0.5
	c0.2-0.3,0.5-0.5,0.8-0.8c0.3-0.2,0.6-0.5,0.9-0.8c0.4,0.2,0.3,0.5,0.3,0.7c-0.8,0.7-1.5,1.5-2.3,2.2c-1.2,1-2.3,2.2-3.4,3.3h-0.5
	c-0.4-0.4-0.8-0.8-1.1-1.1c-0.4-0.4-0.8-0.7-1.1-1.1c0.3-0.4,0.6-0.6,0.9-1c0.2-0.4,0.7-0.6,0.6-1.2c-0.6-0.5-1.3-1.1-2-1.6h-0.5
	c-0.1,0.1-0.1,0.1-0.2,0.2c0,0.3,0,0.6,0,0.9c0,0.1,0,0.3-0.1,0.4c-0.2,0.4-0.2,0.7,0,1c0.6,0.2,0.6,0.2,1.1-0.2
	c0-0.3,0-0.5-0.3-0.7c-0.1,0,0-0.3,0-0.4h0.3c0.2,0.2,0.5,0.4,0.7,0.6v0.4c-0.6,0.5-1.2,1.1-1.4,1.9c0.2,0.4,0.6,0.7,0.9,1
	c0.3,0.3,0.7,0.7,1,1c0.3,0.3,0.7,0.7,1,1h0.5c0.3-0.3,0.6-0.5,0.9-0.7c0.8-0.8,1.6-1.6,2.4-2.3c0.6-0.5,1-1,1.6-1.5
	c0.2-0.2,0.5-0.4,0.7-0.6c0.5-0.4,0.9-0.9,0.8-1.6c-0.1-0.4,0-0.9,0-1.3c0,0-0.1,0.1-0.1,0.1c-0.1-0.2-0.2-0.4-0.3-0.5
	c-0.3,0.2-0.6,0.4-0.8,0.6c-1.5,1.5-3,3-4.6,4.4c-0.1,0.1-0.2,0.2-0.2,0.2c-0.3-0.1-0.5-0.2-0.7-0.3c0.6-0.7,1.1-1.3,1.7-1.9
	c0.2-0.2,0.4-0.4,0.6-0.6c0.2-0.2,0.4-0.4,0.6-0.6c0.2-0.2,0.4-0.4,0.6-0.6c0.2-0.2,0.4-0.4,0.6-0.6c0.2-0.2,0.5-0.3,0.5-0.7
	c0.3-0.1,0.4-0.3,0.6-0.5c0.2-0.2,0.4-0.4,0.6-0.7c0.2-0.2,0.4-0.5,0.3-0.8c-0.4-0.3-0.9-0.7-1.3-1.1h-0.5c-1.6,1.7-3.2,3.3-4.8,5
	c-1-0.8-1.9-1.5-2.9-2.2c-0.8,0.1-1.7-0.1-2.6-0.1C208.2,18.4,206,18.5,203.9,18.5"/>
<path id="XMLID_85_" class="st0" d="M173.5,12.3c-0.6,0-1.1,0.1-1.7,0.1c-0.8,0.1-1.7,0-2.6,0c-0.3,0-0.7-0.1-0.8-0.4
	c-0.1-0.2-0.4-0.1-0.4-0.4c0-0.1-0.3-0.3-0.4-0.4c-0.4-0.4-0.8-0.9-1.3-1.3c-1.5,0.1-3.1-0.2-4.7,0.2c-0.5,0.1-0.9,0-1.4,0
	c-0.4-0.3-0.7-0.4-1.2-0.3c-0.1,0.3-0.1,0.6-0.2,0.9c0.2,0.1,0.3,0.2,0.5,0.2c0.3-0.1,0.5-0.3,0.9-0.3c1.1,0,2.2,0.1,3.3-0.1
	c0.9-0.1,1.7,0,2.6,0c0.8,0.8,1.5,1.6,2.2,2.4c0.6,0.3,1.3,0.2,1.9,0.1c0.9-0.1,1.7-0.1,2.6-0.1c0.6,0,1.1-0.2,1.5-0.6
	c0.7-0.7,1.3-1.3,2-2c0.8,0.1,1.5,0,2.3,0.1c0.8,0.1,1.6,0.1,2.4,0.1v0.8c-0.1,0.1-0.1,0.1-0.2,0.2c-0.4,0-0.9,0-1.4,0
	c-0.5,0-0.9,0-1.4-0.1c-0.5-0.1-1.1-0.1-1.8,0.2c-0.7,0.8-1.5,1.6-2.3,2.5c-0.5,0-1,0-1.4,0c-1.5,0.1-2.9-0.2-4.3-0.2
	c-0.4-0.3-0.7-0.5-1-0.8c-0.3-0.3-0.5-0.5-0.8-0.8c-0.3-0.3-0.6-0.6-0.8-0.8h-5.2c-0.4,0.4-0.7,0.8-1,1.1v0.6
	c0.1,0.2,0.2,0.3,0.3,0.5c0.1,0.2,0.3,0.3,0.4,0.4c0.2,0.1,0.5,0.3,0.6,0.2c0.2-0.2,0.5-0.1,0.7-0.1c1.3,0,2.6,0,3.8,0
	c0.3,0.2,0.5,0.4,0.8,0.6c0.1,0.1,0.3,0.2,0.4,0.3c0.6,0.5,1.2,1.1,1.9,1.4c0.8-0.1,1.7,0,2.6-0.1c0.7-0.1,1.4,0,2.1,0
	c0.6,0,1.3,0.2,1.8-0.2c0.7-0.6,1.4-1.2,1.9-2c0.3,0,0.2-0.4,0.5-0.5c0.3,0,0.6-0.1,0.8-0.1c1-0.1,1.9,0.2,2.9,0.1
	c0,0,0.1,0.1,0.1,0.2c0,0.1,0.1,0.1,0.2,0.1h0.3c0.5-0.6,0.5-0.6,0.1-1.1c-0.5,0.1-1,0.2-1.4,0.1c-0.8,0-1.5,0.2-2.3-0.1
	c-0.4,0.2-0.9,0.1-1.3,0.5c-0.5,0.6-1.1,1.1-1.6,1.7c-0.2,0.3-0.5,0.6-1,0.6c-1.2,0-2.4-0.1-3.6,0.1c-0.7,0.1-1.4,0-2,0
	c-0.5-0.4-1-0.7-1.5-1.1c-0.5-0.4-1.1-0.8-1.6-1.2c-1.4,0-2.6,0-3.9,0c-0.2,0-0.5,0.1-0.7,0.1c-0.2-0.2-0.5-0.4-0.8-0.6
	c-0.1-0.5,0.5-0.6,0.5-1c1.2,0,2.3,0,3.5,0c0.6,0,1.2-0.1,1.8,0.3c0.6,0.6,1.3,1.3,2,2c0.1,0,0.3,0,0.4,0.1c0.3,0.3,0.7,0.2,1,0.2
	c0.4,0,0.8,0,1.1,0h1.1c0.4,0,0.8,0,1.1,0c0.3,0,0.6-0.2,0.9,0c0.3-0.2,0.7-0.1,1.1-0.2c0.3-0.4,0.7-0.7,1-1.2
	c0.3-0.5,0.8-0.7,1.1-1.3c0.2,0,0.5-0.1,0.7-0.1c0.5,0,1.1,0.1,1.6,0.1c0.8,0.1,1.7,0,2.5,0c0.6-0.6,0.4-1.3,0.1-1.8
	c-0.1-0.2-0.2-0.3-0.2-0.4c-0.9-0.1-1.8,0-2.7-0.1c-0.9-0.1-1.8-0.2-2.7,0.2C175.2,10.7,174.4,11.4,173.5,12.3"/>
<path id="XMLID_84_" class="st0" d="M199.4,48.1c0,0.6,0,1.2,0,1.7c0,0.6-0.1,1.1,0.1,1.7c0.2,0.5,0,1.1,0,1.7v2
	c-0.4,0.4-0.9,0.7-1.3,1.1c-1,0.9-2,1.9-2.9,2.8h-0.5c0-0.6,0-1.2,0-1.8c-0.1-1.7,0.2-3.4-0.3-5.1c-0.1-0.1-0.2-0.2-0.3-0.4
	c-0.5,0.3-1.8,1.4-2,1.7v9.6c1,0.9,2,1.9,3,2.8v0.5c0.1,0.1,0.2,0.2,0.4,0.4c0.3-0.1,0.6-0.1,0.9-0.2v-0.9c-0.2-0.1-0.4-0.3-0.6-0.3
	c-0.4,0-0.7-0.3-1-0.6c-0.7-0.7-1.4-1.4-2.1-2.1v-9.1c0.3-0.2,0.5-0.4,0.8-0.7c0.1,0.1,0.2,0.2,0.2,0.2c0,2.1,0,4.2,0,6.3
	c0,0.3,0,0.6,0.2,0.9c0.5,0.1,0.8-0.2,1.1-0.5c0.9-0.9,1.8-1.8,2.8-2.7c0.5-0.4,1-0.9,1.4-1.4c0.2-0.2,0.4-0.5,0.6-0.7
	c0-1,0-1.9,0-2.8c0-0.9-0.2-1.7-0.2-2.6c0.1-0.9,0-1.8,0-2.5c-0.2-0.3-0.3-0.5-0.4-0.7c-1.5,1.2-2.8,2.5-4.2,3.7
	c-0.1,0.4-0.1,0.7-0.2,1.1c0,0.2,0.2,0.8,0.4,1c0.3,0.1,0.6,0,0.9-0.2c0.4-0.4,0.9-0.7,1.2-1.1h0.4v1c-0.3,0.2-0.6,0.5-0.8,0.7
	c-0.4,0.3-0.7,0.8-1.2,1c-0.4,0.2-0.5,0.5-0.7,0.8c0.3,0.7,0,1.3,0.2,2c0.1,0.1,0.2,0.2,0.3,0.2c0.1,0,0.2-0.1,0.3-0.1
	c0.4-0.3,0.7-0.5,1.1-0.8c0.4-0.3,0.7-0.7,1.3-0.7c0.1-0.2,0.2-0.4,0.3-0.6l-0.4-0.4H198c-0.4,0.5-0.7,1.1-1.3,1.3
	c-0.1-0.1-0.1-0.1-0.2-0.2v-0.8c0.8-0.7,1.7-1.4,2.6-2.1v-2.4c-0.1-0.1-0.1-0.1-0.2-0.2c-0.4,0-0.6,0.2-0.9,0.4
	c-0.4,0.5-0.9,0.9-1.5,1.2c0,0-0.1,0-0.2,0c0-0.2-0.1-0.4-0.1-0.5c1-0.9,2-1.9,3-2.8H199.4z"/>
<path id="XMLID_83_" class="st0" d="M171.7,64.2c-1.3-1.7-2.8-3.2-4.1-5c-0.1,0-0.2-0.1-0.3-0.1c-0.1,0.1-0.3,0.2-0.5,0.3
	c0.1,0.2,0.1,0.4,0.2,0.7c0,0,0.1,0.1,0.1,0.1h0.3c1.2,1.4,2.5,2.9,3.7,4.3c0,0.5,0,0.9,0,1.3c0,0.4,0.1,0.7,0.4,0.9
	c0.5,0,1.1,0.1,1.5-0.2c0.3-0.5,0.3-1,0.2-1.5c0-0.3-0.2-0.5-0.1-0.8c0-0.2,0-0.5,0-0.7c-1-1.1-2-2.1-2.9-3.1
	c-0.1-0.2-0.3-0.3-0.5-0.5c0.1-0.2,0.2-0.3,0.3-0.3l3.7,3.7c0,0.8,0,1.7,0,2.5c0,0.4,0.1,0.7,0.4,1h1.4c0.4-0.2,0.3-0.5,0.3-0.8
	c0-1.2,0-2.3,0-3.5c-0.4-0.5-0.9-0.9-1.3-1.4c-0.5-0.5-1-1-1.5-1.5c-1.1-1-0.9-0.9-0.9-2.3c0.1-0.1,0.3-0.1,0.5-0.2
	c0.1,0.2,0.2,0.3,0.2,0.5c0,0.4,0,0.9,0.1,1.2c0.4,0.4,0.7,0.7,0.9,0.9c0.2,0,0.5,0,0.6-0.2c0.1-0.7,0.1-1.3,0.2-2
	c0.1-0.1,0.1-0.1,0.3-0.3c0.1,0.2,0.1,0.3,0.3,0.5c0,0.9,0,2,0,3.1c0,0.3,0.1,0.4,0.2,0.6c0.1,0.1,0.2,0.1,0.4,0.2
	c0.2,0,0.4,0,0.6,0c0.4,0,0.6-0.1,0.9-0.4c1.1-1,2.2-2.1,3.2-3.1c0.4-0.3,0.7-0.7,1.1-1.1c0,0,0.1-0.1,0.1-0.2
	c-0.1-0.1-0.2-0.3-0.2-0.4h-2c-0.2,0.2-0.4,0.3-0.7,0.5c-0.4,0.4-0.8,0.8-1.2,1.2c0,0-0.1,0-0.1,0.1c-0.1-0.1-0.2-0.1-0.3-0.2
	c0.1-0.2,0.1-0.4,0.2-0.5c0.1-0.2,0.2-0.3,0.3-0.5c-0.1-0.3-0.2-0.5-0.4-0.7H177c-0.2,0.2-0.4,0.3-0.5,0.4c0.3,0.9,0.2,1.9,0.2,2.9
	c0.1,0.1,0.2,0.2,0.3,0.3c0.8-0.9,1.6-1.8,2.4-2.6h1c-0.1,0.2-0.2,0.3-0.3,0.4c-1,0.9-1.9,1.8-2.9,2.7c-0.4,0.4-0.8,0.6-1.3,0.4
	c0-0.3-0.1-0.6-0.1-0.8c0-0.8,0-1.6,0-2.3c0-0.3,0-0.7-0.2-0.9c-0.6-0.3-1.1-0.3-1.6,0c0,0.3,0,0.7,0,1c0,0.3-0.1,0.6-0.2,0.8
	c0,0-0.1,0-0.2,0.1c-0.1-0.1-0.1-0.2-0.3-0.4v-1.5c-0.1-0.1-0.1-0.1-0.2-0.2c-0.3-0.1-0.5,0.1-0.8-0.2c0-0.1-0.3,0-0.4,0.1
	c-0.2,0.1-0.4,0.3-0.6,0.4v2.1c0.2,0.2,0.4,0.5,0.6,0.7c1,1.1,2.2,2.1,3.1,3.3c0,0.8,0,1.7,0,2.5c0,0.3-0.1,0.6-0.2,0.9
	c-0.1,0-0.2,0-0.3,0l-0.2-0.2c0-0.7,0-1.4,0-2.2c0-0.6-0.2-1.1-0.6-1.5c-1.2-1.2-2.4-2.3-3.5-3.5h-0.4l-0.9,0.9v0.4
	c0.4,0.4,0.9,0.9,1.3,1.3c0.4,0.4,0.8,0.9,1.2,1.3c0.3,0.3,0.7,0.7,1,1c0.1,0.7-0.1,1.3,0.1,1.9c-0.2,0.1-0.1,0.5-0.4,0.5
	C171.7,65.6,171.7,65.6,171.7,64.2"/>
<path id="XMLID_82_" class="st0" d="M120.3,66.4c0-1.1,0-2.3,0-3.4c-0.1-2.2,0.3-4.4,0.2-6.6c0-0.1,0.1-0.3,0.1-0.4
	c0-0.2,0-0.4,0-0.6c-0.2-0.2-0.3-0.3-0.4-0.5h-0.6c0,0,0.1,0.1,0.1,0.1c-0.2,0.1-0.4,0.2-0.6,0.3c0.2,0.4,0.4,0.6,0.6,0.9
	c0,0.9,0,1.8,0,2.8c0,0.9,0,1.8-0.1,2.7c-0.1,0.7,0,1.4,0,2.1v2.7c0.4,0.4,0.8,0.8,1.2,1.2c0.1,0.1,0.2,0.1,0.4,0.2h6.7
	c0.6-0.4,0.7-0.5,0.7-1.2c0-0.4,0-0.8,0-1.1c-0.3-0.4-0.8-0.5-1.1-0.7c-0.7-0.4-1.4-0.9-2.1-1.2c-0.1-0.1-0.3-0.1-0.4-0.2
	c-0.2-0.3-0.4-0.2-0.7-0.2c-0.4,0.4-0.8,0.8-1.1,1.1v0.3c0.2,0.2,0.4,0.5,0.7,0.6c0.3,0.1,0.5,0.3,0.6,0.6h-1.9
	c-0.5-0.4-0.8-0.9-0.7-1.5c0-0.3-0.1-0.6,0.1-0.9c0.1-0.2,0-0.4,0-0.7c-0.1-1.7,0.2-3.5,0.1-5.2c0.2-0.1,0.3-0.1,0.5-0.2
	c0.1,0.1,0.2,0.2,0.3,0.3c1.5,1,3.1,2,4.6,3.1c0.4,0,0.4,0.5,0.6,0.6c-0.1,0.2-0.2,0.4-0.3,0.6c-1.5-0.9-2.9-1.9-4.4-2.8
	c0,0,0,0-0.1,0c-0.1,0.1-0.1,0.1-0.2,0.2c0,0.7,0,1.4,0,2.1c0,0.3-0.1,0.6-0.2,0.9c0,0.1-0.1,0.1-0.1,0.2c0.1,0.1,0.3,0.2,0.4,0.4
	h0.6c0.2-0.2,0.4-0.3,0.3-0.6c-0.1-0.1-0.2-0.2-0.3-0.3v-1.7c0.3,0.1,0.5,0.1,0.7,0.3c1.1,0.7,2.1,1.4,3.2,2.1
	c0.3,0.2,0.5,0.3,0.9,0.2c0-0.3,0.1-0.6,0.1-0.9c0-0.3,0-0.7,0-1c-0.2-0.2-0.4-0.5-0.7-0.8c-0.2-0.2-0.4-0.2-0.6-0.3
	c-0.5-0.4-1-0.7-1.5-1.1c-1.1-0.7-2.1-1.4-3.2-2.2c-0.4-0.3-0.7-0.4-1.2-0.3c-0.1,0.3-0.2,0.5-0.2,0.8c-0.1,1.2,0,2.3-0.1,3.5
	c-0.2,1.2,0.1,2.4-0.2,3.6c-0.1,0.4,0.1,0.8,0.1,1.2c0.4,0.3,0.7,0.7,1,0.9c0.7,0,1.3,0,2,0c0.1,0,0.3,0,0.4,0.1
	c0.2,0.1,0.2,0.1,0.4,0c0.1,0,0.2,0.1,0.4,0.1c0.4,0,0.6-0.2,0.7-0.7c-0.6-0.5-1.4-0.8-2-1.4c0.2-0.2,0.3-0.5,0.4-0.7
	c1.2,0.6,2.4,1.1,3.4,1.9v1.3l-0.2,0.2h-6.2C121.1,67.2,120.7,66.8,120.3,66.4"/>
<path id="XMLID_81_" class="st0" d="M118.9,30.1c0.2,0.2,0.4,0.5,0.6,0.7c1.6,1.6,3.2,3.2,4.8,4.8c0,0.8-0.1,1.5-0.1,2.2
	c0,1.8,0,3.5,0,5.2c-0.4,0.3-0.7,0.7-1.1,0.9c-0.7,0.5-1.3,1.2-1.9,1.7c-0.2,0.2-0.5,0.5-0.8,0.5c-0.2-0.2-0.4-0.5-0.7-0.7v-12h0.3
	c1,1,1.9,1.9,2.8,2.8c-0.1,1.9,0.2,3.9-0.2,5.8c-0.4,0.3-0.7,0.9-1.4,0.8c0-0.2,0-0.3,0-0.5c0.1-1.8,0.1-3.6,0.2-5.4
	c0-0.1,0.1-0.3,0.1-0.4c0.2-0.3,0.2-0.7-0.1-1c-0.2-0.1-0.5-0.1-0.6-0.1c-0.3,0.2-0.4,0.3-0.5,0.3v0.7c0.1,0.1,0.2,0.2,0.3,0.3
	c0,0.9,0,1.7,0,2.6c0,0.8,0.1,1.7-0.1,2.5c-0.1,0.6,0,1.1,0,1.6c0.1,0.2,0.1,0.2,0.2,0.3c0.1,0.1,0.1,0.2,0.2,0.3h0.5
	c0.6-0.7,1.5-1.1,2-1.9c0-1.9,0-3.8,0-5.7c0-0.3-0.1-0.6-0.1-0.9c-0.5-0.1-0.6-0.5-0.9-0.8c-0.3-0.3-0.6-0.6-0.9-0.9
	c-0.3-0.3-0.6-0.6-1-1c-0.3-0.3-0.6-0.6-0.9-0.9h-0.5c-0.1,0.1-0.1,0.1-0.2,0.2c0,3.9,0,7.8,0,11.7c0,0.6-0.1,1.2,0.2,1.8
	c0.3,0.3,0.7,0.7,1.1,1.1c0.4,0.1,0.7-0.1,1-0.3c0.4-0.3,0.7-0.7,1.1-1c0.9-0.8,1.8-1.7,2.7-2.5v-7.8c-0.2-0.2-0.3-0.5-0.5-0.7
	c-1.5-1.5-2.9-2.9-4.4-4.4c-0.2-0.2-0.4-0.5-0.6-0.7c0.5-0.6,0-1.3,0.4-1.9c-0.1-0.2-0.2-0.3-0.3-0.5H119c-0.2,0.2-0.4,0.3-0.6,0.4
	c0.2,0.3,0.3,0.5,0.5,0.8V30.1z"/>
<path id="XMLID_80_" class="st0" d="M236.3,57.1c0.2,0.6,0.5,1,1,1.3c0.8,0.5,1.5,1.2,2.2,1.8c0.9,0.7,1.8,1.5,2.6,2.3
	c0.2-0.1,0.3-0.1,0.4-0.2V59c-0.8-0.5-1.5-1.3-2.3-1.9c-0.7-0.6-1.4-1.3-2.1-1.9c-1.1-0.9-2.1-1.9-3.1-2.9c-0.1-0.1-0.1-0.2-0.2-0.2
	h-0.4c-0.1,0.1-0.1,0.1-0.2,0.2c0,0.3,0,0.5,0,0.8c0,0.3,0.2,0.5,0.1,0.8c-0.1,1.5,0.2,2.9,0.2,4.4c0.1,0.1,0.3,0.3,0.4,0.4
	c0.8,0.6,1.6,1.3,2.4,1.9c0.5,0.4,1,0.9,1.4,1.3c0.2,0.2,0.5,0.4,0.7,0.5c0.2,0.2,0.4,0.4,0.7,0.5c0.4,0.2,0.7,0.6,1.1,0.9
	c0.4,0.4,0.4,0.7,0.1,1.1c-0.4,0.1-0.8,0.1-1.1-0.2c-0.3-0.2-0.6-0.5-0.9-0.7c-0.8-0.7-1.5-1.4-2.2-2.1c-0.1-0.1-0.1-0.2-0.2-0.2
	c-0.8-0.6-1.6-1.3-2.3-2c-0.1-0.1-0.2-0.3-0.3-0.3c-0.4-0.1-0.6-0.4-0.7-0.8c0-2.1,0-4.3,0-6.4c0-0.3,0.1-0.6,0.1-0.9
	c-0.1-0.1-0.2-0.2-0.4-0.4c-0.2,0.1-0.4,0.1-0.6,0.2c0,0.6,0.2,1,0.2,1.5c0,0.5-0.2,1,0.1,1.5c-0.2,0.3-0.2,0.7-0.1,1
	c0.2,0.4,0.1,0.8,0,1.2c-0.1,0.2-0.1,0.4-0.1,0.6c0,0.5,0,1.1,0,1.6c0,0.4,0.1,0.7,0.4,1c0.5,0.5,1,0.9,1.5,1.4
	c0.9,0.8,1.7,1.6,2.7,2.3c0.7,0.5,1.3,1.2,1.9,1.8c0.3,0.2,0.5,0.5,0.8,0.7h2.2c0.5-0.6-0.1-1.2-0.1-1.7c-0.8-0.8-1.6-1.5-2.5-2.2
	c-0.5-0.4-0.9-0.8-1.3-1.2c-0.4-0.3-0.8-0.7-1.2-1.1c-0.6-0.5-1.2-1-1.8-1.5c0.1-0.8,0-1.5-0.1-2.2c-0.1-0.5,0.1-1-0.1-1.5
	c-0.1-0.2,0-0.4,0.2-0.5c0.2,0.2,0.3,0.4,0.5,0.5c0.4,0.2,0.7,0.6,1,0.9c0.3,0.3,0.7,0.6,1,0.9c0.9,0.8,1.8,1.7,2.7,2.6
	c0.1,0.1,0.2,0.1,0.2,0.2c0.6,0.4,1,0.9,0.9,1.7c0,0.2,0,0.5,0,0.8c0,0,0,0.1-0.1,0.1h-0.3c-0.3-0.3-0.6-0.7-1-1
	c-0.6-0.5-1.2-1-1.8-1.5c-0.1-0.1-0.2-0.4-0.5-0.4c-0.4-0.4-0.8-0.7-1-1.2c0.1-0.3,0.2-0.5,0.3-0.8c0-0.1-0.1-0.2-0.2-0.3
	c-0.1-0.1-0.1-0.2-0.2-0.3h-0.8c-0.3,0.2-0.2,0.5-0.2,0.7c0.1,0.1,0.2,0.2,0.3,0.3V57.1z"/>
<path id="XMLID_79_" class="st0" d="M263.8,24.5c-1.1,0-2.2,0-3.4,0c-0.7,0-1.3,0.2-1.7,0.7c-0.2,0.3-0.6,0.5-0.9,0.8
	c-0.7,0.6-1.4,1.3-2.1,2c-0.1,0.1-0.2,0.3-0.4,0.4c-0.7,0.5-1.4,1.1-2.1,1.8c-0.2,0.2-0.5,0.4-0.7,0.6c-0.8,0-1.6,0-2.4,0
	c-0.8,0.1-1.5-0.2-2.3-0.2c-0.1,0.2-0.2,0.5-0.3,0.7c0.1,0.3,0.4,0.6,0.9,0.7c0.2-0.1,0.5-0.3,0.8-0.5c0.7,0,1.4,0,2.1,0
	c0.7,0,1.3-0.2,1.9-0.3c0.7-0.5,1.1-1.1,1.6-1.5c0.6-0.4,1-1,1.5-1.4c0.5-0.4,0.9-0.9,1.4-1.3c0.7-0.5,1.3-1.2,1.9-1.7h4.1
	c0,0.9,0,1.9,0,2.8c0.1,0.9-0.2,1.8-0.2,2.7c0,0.2,0,0.4,0,0.7h-0.7v-5.2c-0.4-0.4-0.9-0.5-1.4-0.3c-0.1,0.1-0.3,0-0.4,0
	c-0.3,0-0.6,0-0.9,0c-0.4,0.3-0.7,0.5-1,0.8c-1.7,1.6-3.4,3.3-5.1,5c-0.3,0.3-0.6,0.4-1,0.4c-0.9,0-1.8,0-2.7,0
	c-0.1,0.1-0.2,0.3-0.2,0.4c0,0.4,0.2,0.8,0.5,1c0.6,0.4,1.1,1,1.6,1.5c0.5,0.4,0.9,0.9,1.3,1.3c0.2,0.2,0.4,0.3,0.5,0.3
	c0.2-0.1,0.4-0.2,0.6-0.3c-0.1-0.5,0-0.9-0.1-1.3c-0.1-0.4,0.1-0.9-0.1-1.3c-0.1-0.4-0.1-0.8-0.1-1.2c0.2-0.4,0.5-0.6,0.8-0.8
	c1.6-1.6,3.3-3.2,5-4.8c0,0,0,0,0.1-0.1c0.2-0.2,0.5-0.3,0.8-0.3c0.4,0,0.7,0,1,0l0.2,0.2v5c0.1,0.1,0.2,0.2,0.3,0.3h1.7
	c0.1-0.1,0.1-0.1,0.2-0.2c0.1-0.9-0.1-1.8,0.2-2.6v-4.2C264.1,25.2,264.1,24.7,263.8,24.5"/>
<path id="XMLID_78_" class="st0" d="M157,54.9c0.7-0.5,1.4-1,2-1.6c0.3-0.3,0.7-0.5,1-0.8c0,0,0.1,0,0.1,0c0.1,0.1,0.1,0.1,0.2,0.2
	c0,0.3,0,0.6-0.1,0.9c-0.1,0.4,0,0.8,0,1.3c0,0.5,0.2,0.8,0.6,1.1c0.5,0.3,1,0.6,1.4,0.9c2.3,0,4.6,0,6.9,0c0.3,0,0.6,0,0.9,0.2v0.5
	c-0.3,0-0.7,0-1,0c-0.3,0-0.6,0.1-0.9,0.1c-1.4,0-2.8,0-4.1,0c-0.3-0.1-0.5-0.2-0.7-0.3c-0.2,0.3-0.4,0.5-0.5,0.7
	c0.1,0.2,0.2,0.5,0.3,0.7h0.7c0.3-0.2,0.8-0.4,1.1-0.4c1.4,0,2.7,0,4.1,0c0.6,0,1.1,0.1,1.6-0.2v-1.6c-0.2-0.1-0.3-0.2-0.5-0.3h-1.9
	h-2c-0.7,0-1.4,0-2,0c-0.7,0.1-1.3-0.2-1.9-0.2c-0.4-0.3-0.9-0.5-1.3-0.8v-3.7c0,0-0.1,0-0.1,0.1c-0.1-0.1-0.2-0.3-0.3-0.5
	c-1.2,1-2.4,2-3.6,2.9c-0.2-0.1-0.3-0.2-0.4-0.2c-0.1-0.1-0.2-0.2-0.3-0.3c-0.5-0.7-1.1-1.2-1.7-1.8H154v5l0.3,0.3h1.1
	c0.1-0.1,0.2-0.2,0.3-0.3c0.1-0.2,0.1-0.3,0.2-0.5l0.7,0.7h0.3c0.7-0.5,1.1-1.4,2.1-1.7v1.2c0.9,0.8,1.7,1.5,2.6,2.2
	c0,0.2-0.1,0.4-0.1,0.6c0,0.1,0,0.3,0,0.4c0,0.2,0.1,0.3,0.1,0.5c0,1.7,0,3.5,0,5.1c-0.1,0.3-0.2,0.5-0.4,0.8
	c0.2,0.2,0.3,0.3,0.5,0.4c0.4,0,0.5-0.2,0.6-0.4c0-0.9-0.1-1.8-0.1-2.7c0-1.3,0-2.7,0-4c0-0.5,0-1-0.2-1.3c-0.9-0.7-1.6-1.4-2.4-2
	c0.1-0.6-0.1-1.2,0.1-1.8c0-0.1-0.1-0.2-0.2-0.3h-0.4c-0.6,0.6-1.3,1.2-1.9,1.8c-0.1,0.1-0.2,0.2-0.3,0.3c-0.5-0.5-1-1-1.4-1.4
	c-0.2,0.2-0.4,0.3-0.5,0.4v1.3c-0.2,0-0.3,0-0.4,0v-3.3c0.3-0.1,0.5,0,0.6,0.2c0.1,0.3,0.4,0.2,0.4,0.5c0,0.2,0.3,0.4,0.5,0.5
	c0.2,0.2,0.3,0.4,0.5,0.5H157z"/>
<path id="XMLID_77_" class="st0" d="M199.3,12.8c0,0.1,0,0.2,0,0.2c-0.5,0.5-1,1-1.5,1.4c-0.3,0.2-0.6,0.5-0.9,0.8
	c-0.7,0.4-1.3,0.9-1.8,1.5c0,0.2,0,0.3,0,0.5h3.4c1.5-1.3,3-2.5,4.4-3.8v-0.7c-0.8-0.6-1.3-1.5-2.1-2h-4.4c-0.9,0.8-1.9,1.5-2.8,2.3
	c0,0.9,0,1.8,0,2.6c0,0.8-0.3,1.7-0.2,2.5c0,0.1,0,0.3,0,0.4l0.4,0.4c0.3,0,0.6-0.1,0.9-0.2c0.1,0,0.1,0.1,0.2,0.1
	c0.2-0.1,0.4-0.1,0.5-0.1c0.3,0,0.5,0,0.8,0c1.2,0.1,2.4-0.2,3.5-0.2c0.5-0.4,0.9-0.7,1.3-1.1c0.9-0.8,1.8-1.7,2.7-2.5
	c0.1,0,0.2,0,0.3,0c0.2-0.2,0.3-0.3,0.4-0.3v-0.4c-0.2-0.2-0.3-0.4-0.3-0.5h-0.5c-0.3,0.3-0.5,0.6-0.6,1c-0.1,0-0.2,0-0.3,0.1
	c-0.9,0.8-1.8,1.7-2.7,2.5c-0.2,0.2-0.5,0.4-0.7,0.6c-0.9,0.1-1.7,0-2.5,0.1c-0.8,0.1-1.7,0-2.6,0v-4.7c0.7-0.9,1.7-1.4,2.5-2.1
	c0.6,0,1.3,0,2,0c0.7,0,1.3,0.1,2.1,0.2c0.5,0.4,1.2,0.8,1.3,1.7c-0.4,0.3-0.8,0.6-1.1,0.9c-0.7,0.8-1.7,1.3-2.4,2.1
	c-0.2,0.2-0.4,0.4-0.7,0.4c-0.4,0-0.8,0-1.3,0c0.1-0.4,0.1-0.5,0.3-0.6c0.8-0.5,1.5-1.2,2.3-1.8c0.3-0.3,0.6-0.6,1-0.8
	c0.3-0.2,0.5-0.4,0.6-0.8c-0.1-0.1-0.2-0.2-0.3-0.2c-0.3-0.1-0.6-0.2-1-0.2c-0.4,0-0.7-0.1-1.1-0.1c-0.4,0-0.8,0-1.1,0
	c-0.3,0-0.5,0.1-0.7,0.3c-0.4,0.4-0.9,0.7-1.5,0.8c-0.1,0-0.1,0.1-0.2,0.2v0.5c0.2,0.2,0.3,0.4,0.4,0.5c0.3-0.1,0.7-0.2,0.9-0.2
	c0.1-0.3,0.2-0.6,0.3-0.9c0.2-0.2,0.5-0.4,0.8-0.6C197.9,12.6,198.6,12.7,199.3,12.8"/>
<path id="XMLID_76_" class="st0" d="M155.6,48c0.3,0.3,0.6,0.6,0.9,0.9c0.2-0.1,0.5-0.1,0.8-0.2c0-0.3,0.3-0.4,0.4-0.6
	c0.1,0,0.2,0,0.2-0.1c0.4-0.7,1.1-1.1,1.6-1.7c0.1-0.1,0.2-0.1,0.3-0.2v1.3c-0.4,0.4-0.8,0.8-1.2,1.3c-0.4,0.4-0.9,0.7-1.1,1.2
	c-0.3,0-0.3,0.5-0.6,0.3c-1.1-1.1-2.2-2.1-3.3-3.1V39c1.2-1.1,2.3-2.2,3.5-3.3c0.3-0.3,0.5-0.5,0.8-0.8c0.4,0.1,0.5-0.2,0.7-0.4
	v-0.5l-0.1,0.1c-0.1-0.2-0.2-0.3-0.3-0.5c-0.5,0.2-0.9,0.4-0.9,0.9c-0.2,0.2-0.4,0.4-0.6,0.6c-0.2,0.2-0.4,0.5-0.7,0.5
	c0,0.3-0.4,0.3-0.5,0.5c-0.6,0.7-1.3,1.3-1.9,1.9c-0.2,0.2-0.4,0.5-0.6,0.7v8.6c1.2,1.2,2.5,2.3,3.7,3.5c0.5,0.1,0.8-0.2,1.1-0.5
	c0.1-0.1,0.1-0.2,0.2-0.3c0.8-0.9,1.7-1.8,2.6-2.7c-0.1-0.8-0.2-1.6-0.2-2.3h-0.7c-1,1-2,2-2.9,2.9c-0.1-0.1-0.2-0.1-0.4-0.2v-0.5
	c1.2-1.2,2.5-2.5,3.7-3.7c0.2-0.2,0.4-0.5,0.6-0.7v-2.6c-0.2-0.1-0.3-0.1-0.5-0.2c-0.5,0.6-1,1.2-1.5,1.7c-0.3,0.3-0.5,0.6-0.8,0.8
	c-0.3,0.2-0.4,0.5-0.7,0.7c-0.3,0.2-0.5,0.5-0.8,0.8c-0.2,0.2-0.5,0.4-0.6,0.7c-0.1,0.2-0.3,0.3-0.4,0.6c-0.1,0.2-0.4,0.3-0.6,0.4
	c-0.2,0.1-0.3,0.2-0.4,0.4v0.5c0,0,0.1-0.1,0.1-0.1c0.1,0.2,0.2,0.3,0.3,0.5c0.6-0.3,0.6-0.3,0.7-0.9c1.5-1.5,3-3.1,4.5-4.7
	c0.5,0.5,0.1,0.9,0.1,1.4c-1.4,1.4-2.9,2.9-4.3,4.3V48z"/>
<path id="XMLID_75_" class="st0" d="M152.8,35.9c0.2,0.2,0.4,0.3,0.6,0.2c0.2-0.1,0.4-0.2,0.5-0.4c0.6-0.6,1.2-1.2,1.9-1.8
	c1-0.8,1.9-1.8,2.9-2.7c0.2-0.2,0.5-0.5,0.7-0.7h0.4v1.9c-0.1,0.1-0.2,0.2-0.3,0.3c0.1,0.2,0.1,0.5,0.2,0.7c0.2,0.1,0.4,0.1,0.6,0.2
	c0.2-0.2,0.4-0.3,0.7-0.5c-0.1-0.2-0.1-0.3-0.1-0.4c-0.3-0.3-0.4-0.6-0.4-1c0-0.5,0-1,0-1.5c0-0.3-0.1-0.7-0.4-1
	c-0.5,0.4-1.1,0.9-1.6,1.3c-0.7,0.7-1.4,1.4-2.1,2c-0.9,0.7-1.7,1.6-2.5,2.3c-0.1,0.1-0.2,0.1-0.3,0.2v-0.9c2-2,4.1-4,6.1-6
	c0,0,0.1-0.1,0.1-0.1c0.2-0.2,0.4-0.4,0.6-0.7c-0.1-0.6-0.1-1.1-0.2-1.7c-0.2-0.1-0.3-0.1-0.4-0.2c-2.1,2-4.1,3.9-6.1,5.9
	c0,0-0.1,0-0.2,0.1c0-0.1-0.1-0.2-0.2-0.4v-0.3c2.2-2.2,4.3-4.3,6.5-6.5c0-0.8,0-1.7,0.1-2.6c0.1-0.9,0-1.8,0-2.7c0-0.4,0-0.8,0-1.1
	c0-0.1,0-0.3,0-0.4c0.2-0.2,0.1-0.5,0.1-0.7c-0.4-0.3-0.5-0.3-1,0c0.1,0.3,0.2,0.6,0.2,1c0,0.4,0,0.8,0,1.1c0.1,1.8-0.3,3.5-0.1,5.3
	c-2.1,2.1-4.3,4.1-6.3,6.1v2l0.2,0.2h0.5c0.3-0.3,0.7-0.7,1-1c0.3-0.3,0.5-0.5,0.8-0.8c0.3-0.3,0.5-0.5,0.8-0.8
	c0.3-0.3,0.5-0.5,0.8-0.8c0.3-0.2,0.5-0.6,0.8-0.7c0.1-0.4,0.5-0.5,0.7-0.7c0.1-0.1,0.1-0.2,0.2-0.3c0.2-0.3,0.5-0.5,0.8-0.6
	c0.1,0.2,0.2,0.3,0.3,0.5c-0.2,0.3-0.4,0.5-0.7,0.8c-0.7,0.7-1.5,1.3-2.2,2c-0.5,0.5-1.1,1.1-1.6,1.6c-0.2,0.1-0.4,0.2-0.5,0.4
	c-0.1,0.2-0.3,0.4-0.4,0.6c-0.6,0.4-1,0.9-1.4,1.4V35.9z"/>
<path id="XMLID_74_" class="st0" d="M169.6,41c0.2-0.2,0.4-0.3,0.6-0.5c0.2-0.2,0.3-0.4,0.5-0.5c0.4-0.2,0.4-0.7,0.9-0.8
	c0-0.4,0.4-0.5,0.6-0.7c0.2-0.3,0.4-0.5,0.7-0.8c0.3-0.3,0.6-0.4,1-0.4c1.9,0,3.8,0,5.7,0c0,0,0.1,0,0.1,0c0.1,0.2,0.1,0.4,0.2,0.6
	c-0.3,0.2-0.1,0.5-0.1,0.7c-0.1,0.6,0.2,1.3-0.3,1.9c0.1,0.2,0.2,0.4,0.3,0.5h0.6c0.1-0.2,0.2-0.4,0.3-0.6c-0.4-0.3-0.3-0.7-0.3-1.1
	c0-0.8,0-1.6,0-2.4c-0.1-0.1-0.1-0.1-0.2-0.2h-6.9c-0.2,0.2-0.4,0.4-0.7,0.6c-1,1-2,2-3,3h-7.1c-0.3-0.3-0.7-0.6-1-0.9
	c0-0.5-0.1-0.9-0.1-1.4c0.2-0.2,0.4-0.5,0.6-0.7h8.2c0.1,0.1,0.1,0.1,0.3,0.3c-0.3,0.3-0.6,0.7-0.8,1c-1.8,0-3.6,0-5.4,0
	c-0.5,0-0.9,0-1.3-0.2c-0.3-0.1-0.5-0.1-0.7,0.1c-0.2,0.4,0.1,0.6,0.2,0.9c0.3-0.1,0.7-0.2,1-0.3c0.1,0,0.2,0.1,0.3,0.1
	c0.5,0,1,0,1.4,0h2.6c0.2,0,0.5-0.1,0.7,0c0.2,0.2,0.3,0,0.5,0.1c0.2,0.1,0.4,0.1,0.6,0.1c0.3-0.2,0.6-0.3,0.7-0.6
	c0.4-0.6,0.9-1,1.3-1.5c0,0,0-0.1,0-0.1c-0.1-0.2-0.3-0.3-0.4-0.4c-3,0-5.9,0-8.8,0c-0.5,0-0.9,0.1-1.2,0.5
	c-0.1,0.1-0.2,0.2-0.3,0.3v2.1c0.5,0.4,1,0.9,1.5,1.3H169.6z"/>
<path id="XMLID_73_" class="st0" d="M222.6,24.1V26c-0.5,0.5-1,1-1.6,1.4c-0.4,0.3-0.6,0.6-1,0.8c-0.5,0.3-0.9,0.8-1.4,1.3
	c0.3,0.2,0.4,0.3,0.6,0.4c1,0,2.1,0.1,2.9-0.7h0.5V30c-0.1,0.1-0.2,0.3-0.4,0.4c-2.2,0-4.3,0-6.4,0c-0.6,0-1.2,0.1-1.7,0.2
	c-0.2-0.4-0.6-0.7-0.2-1.1c-0.3-0.6-0.1-1.2-0.2-1.8l0.3-0.3v-0.7l-0.2-0.2h-0.5c-0.2,0.2-0.4,0.3-0.6,0.4c0.4,0.8,0.4,1.6,0.4,2.4
	c0,0.3,0,0.5,0,0.8c0,0.4,0.1,0.7,0.4,1c0.8,0,1.7,0,2.6,0c0.8,0,1.7,0,2.5-0.1c0.7-0.1,1.4,0,2,0h2.4c0.1-0.1,0.2-0.2,0.2-0.2v-2.6
	c-0.2-0.2-0.4-0.3-0.6-0.1c-0.5,0.4-1,0.7-1.6,1.1c0,0-0.2,0-0.3,0c-0.1,0-0.3,0-0.4,0c0.1-0.1,0.1-0.2,0.1-0.2
	c0.5-0.4,0.9-1,1.5-1.3c0.5-0.3,0.7-0.8,1.2-1c0.3-0.1,0.4-0.5,0.4-0.8c0-0.9,0-1.8,0-2.7c-0.1,0.1-0.1,0.1-0.2,0.2
	c-0.1-0.2-0.1-0.4-0.2-0.6c-1,0.8-1.8,1.6-2.7,2.3c0.1,0.4,0.1,0.8,0.2,1.1c-1.3,1.1-2.5,2.1-3.8,3.1h-0.3c-0.2-0.2-0.4-0.4-0.5-0.5
	c-0.2-0.2-0.3-0.4-0.5-0.6h-0.5c-0.2,0.2-0.4,0.3-0.5,0.3v0.4c0.2,0.2,0.3,0.3,0.4,0.5h0.6c0.3,0.5,0.8,0.6,1.5,0.7
	c1.4-1.2,2.9-2.4,4.5-3.7c0.1-0.1,0.1-0.3,0.2-0.5c-0.2-0.2-0.3-0.3-0.5-0.5c0.4-0.4,0.8-0.8,1.2-1.2H222.6z"/>
<path id="XMLID_72_" class="st0" d="M128.6,24.9c0-1.5,0-3.2,0-4.8c0-1.6,0.2-3.3-0.1-4.9c-0.1-0.3,0-0.6,0-1c-0.5,0-1-0.1-1.5-0.1
	c-0.6,0-1,0.1-1.2,0.8v10.3c-0.7,0.3-0.7,0.3-1-0.1c0-1.1,0-2.2,0-3.2c0.1-1.1-0.2-2.1-0.2-3.2c0-0.8,0-1.7,0-2.5
	c0-0.4,0.1-0.9,0.2-1.3c0.1-0.2,0.1-0.4,0.1-0.6c-0.3-0.1-0.5-0.2-0.7-0.4c-0.2,0.1-0.4,0.3-0.6,0.4v0.7l0.3,0.3
	c-0.1,1.4,0.2,2.8,0.2,4.1c-0.1,2,0,4,0,6c0,0,0,0.1,0.1,0.2c0.1,0.1,0.3,0.2,0.5,0.3c0.2,0,0.5,0,0.8,0c0.6,0,1-0.1,1.2-0.8V15.2
	c0.2-0.2,0.3-0.4,0.4-0.5c0.3,0.1,0.5,0.2,0.8,0.2c0,0.3,0.1,0.6,0.1,0.9c0,2.8,0,5.6,0,8.4c0,0.5,0,1-0.3,1.4c0,0.1,0,0.1,0,0.2
	l0.4,0.4h0.6c0,0-0.1-0.1-0.1-0.1c0.2-0.1,0.3-0.2,0.5-0.3C128.9,25.5,128.8,25.2,128.6,24.9"/>
<path id="XMLID_71_" class="st0" d="M237.1,11.1c-0.2,0.3-0.3,0.5-0.3,0.8c-0.1,2.4,0.1,4.8-0.1,7.2c0.1,0.1,0.2,0.2,0.4,0.4
	c0.3-0.1,0.5-0.2,0.8-0.4v-0.6c-0.1-0.1-0.2-0.2-0.3-0.2v-6.4c0.1-0.1,0.1-0.1,0.2-0.2h1c0.1,0.1,0.1,0.1,0.2,0.2c0,0.2,0,0.5,0,0.7
	c0,0.2-0.1,0.5-0.1,0.7c0,0.3,0,0.6,0,0.9c0,0.3,0.2,0.5,0.2,0.8c0,0.9,0,1.9,0,2.8c0,0.9-0.1,1.9-0.2,2.6c0.2,0.5,0.4,0.7,0.6,0.8
	c0.4,0.2,0.7,0.5,1,0.8c0.2,0.2,0.4,0.4,0.5,0.5c0.4,0.1,0.5-0.2,0.7-0.4v-9.7c0.2-0.3,0.3-0.5,0.5-0.7c-0.1-0.2-0.2-0.3-0.2-0.4
	c-0.5-0.4-0.9-0.2-1.3,0.1c0,0.3-0.1,0.6,0.2,0.8c0.2,0.2,0.1,0.4,0.1,0.6c0,2.7,0,5.4,0,8.1c0,0,0,0.1-0.1,0.1h-0.3l-1-1
	c0-0.5,0-0.9,0.1-1.4c0.1-0.6,0.2-1.2-0.1-1.7v-4c0.3-0.4,0.1-0.9,0.1-1.4c0-0.3-0.1-0.5-0.4-0.7c-0.2-0.1-0.4-0.4-0.7-0.1
	c-0.1,0.1-0.2,0.1-0.4,0.1C237.8,11.1,237.5,11.1,237.1,11.1"/>
<path id="XMLID_70_" class="st0" d="M257.6,60.4c-0.2,0.1-0.4,0.2-0.6,0.3c0.1,0.8-0.1,1.6,0.1,2.4c0,0.1-0.1,0.3-0.1,0.5
	c0.3,0.3,0.6,0.4,1,0.4c1.1,0,2.2,0,3.3,0c0.2,0,0.5,0.1,0.7,0.1c0.2-0.1,0.4-0.1,0.5-0.2v-1.6c-0.3-0.2-0.6-0.4-0.9-0.7
	c-0.7-0.5-1.4-1-2.1-1.5c-0.7-0.5-1.4-1-2-1.5v-1c0.1-0.1,0.2-0.2,0.3-0.3c1.4,0.9,2.8,1.9,4.1,2.8c0.2-0.1,0.3-0.2,0.4-0.2v-2.2
	c-0.2-0.2-0.4-0.6-0.7-0.7c-0.4-0.3-0.8-0.6-1.1-0.9c-0.4-0.3-0.8-0.7-1.3-1c-0.3-0.2-0.7-0.5-0.9-0.8c-0.2-0.2-0.3-0.5-0.5-0.7
	h-0.6c-0.1,0.2-0.2,0.4-0.4,0.6c0.1,0.1,0.2,0.3,0.4,0.4c0.5,0.2,0.9,0.5,1.3,0.8c0.2,0.2,0.4,0.4,0.6,0.5c0.8,0.6,1.6,1.2,2.4,1.9
	c0,0.3,0,0.7-0.1,1c-0.1,0-0.2-0.1-0.2-0.1c-0.6-0.3-1.1-0.7-1.6-1.1c-0.7-0.5-1.4-0.9-2.1-1.4c-0.3-0.2-0.3-0.2-0.6,0
	c-0.1,0.4-0.2,0.8-0.2,1.1c0,0.4,0,0.8,0,1.2c0.2,0.2,0.3,0.4,0.4,0.6c0.4,0.3,0.8,0.7,1.3,1c1.2,0.7,2.2,1.7,3.4,2.3
	c0.1,0.3,0.1,0.6-0.2,0.7c-1.3,0.1-2.5-0.2-3.8-0.2c-0.1-0.1-0.1-0.1-0.2-0.2v-1.3c0.5,0,0.7,0.1,0.9,0.4c0.2,0.4,0.5,0.5,0.9,0.7
	c0.2-0.1,0.3-0.1,0.5-0.2c0,0,0,0,0,0v-0.6c-0.2-0.2-0.4-0.4-0.8-0.4c-0.1,0-0.2-0.1-0.3-0.1C258.5,61.1,258.1,60.8,257.6,60.4"/>
<path id="XMLID_69_" class="st0" d="M200.4,20.3c0.2-0.1,0.3-0.2,0.5-0.3c0.4-0.4,0.8-0.7,1.2-1.1c0.9-0.8,1.8-1.6,2.6-2.4
	c0.3-0.3,0.7-0.6,1.2-0.7c0.3-0.1,0.4-0.2,0.4-0.4c-0.2-0.2-0.3-0.3-0.4-0.5c-0.4,0-0.6,0.1-0.8,0.4c-0.6,0.6-1.3,1.3-2,1.8
	c-1,0.8-2,1.8-2.9,2.6c-0.8,0-1.5,0-2.3,0c-0.7,0-1.4-0.1-2.1-0.1c-0.9,0-1.7,0-2.6,0h-0.9c0-2.2,0-4.4,0-6.6c0-0.4,0.1-0.7,0.5-0.9
	c0.4-0.3,0.8-0.6,1.2-1c0.7-0.6,1.3-1.2,2.1-1.6h1.9c0.2,0,0.5-0.1,0.6,0c0.3,0.2,0.7,0,0.9,0.2c0.3,0.2,0.6,0.1,0.8,0.1
	c0.2-0.2,0.4-0.3,0.5-0.4c-0.1-0.2-0.2-0.4-0.3-0.7c-0.3-0.1-0.5-0.1-0.8-0.2c-0.1,0.1-0.2,0.2-0.3,0.3h-3.9
	c-0.2,0.1-0.3,0.1-0.4,0.2c-0.4,0.4-0.8,0.8-1.3,1.1c-0.5,0.4-0.9,0.8-1.4,1.1c-0.6,0.4-0.9,1-0.9,1.7c0,2.3,0,4.6,0,6.9
	c0.1,0.1,0.2,0.2,0.2,0.2H200.4z"/>
<path id="XMLID_68_" class="st0" d="M183.1,59.7h-0.2c-0.4,0.4-0.9,0.7-1.3,1.1c-0.5,0.4-0.9,0.9-1.5,1.3c-0.8,0.6-1.5,1.3-2.2,2
	c-0.2,0.2-0.4,0.5-0.8,0.6c0,0-0.1,0-0.1,0c-0.1-0.2-0.1-0.4-0.2-0.6c0.2-0.2,0.3-0.5,0.6-0.7c0.6-0.5,1.2-1.1,1.7-1.6
	c1.2-1.1,2.3-2.2,3.5-3.3c0.2-0.1,0.3-0.2,0.5-0.4c0.1,0,0.1,0,0.2-0.1v-0.5c-0.1-0.1-0.2-0.2-0.4-0.4c-0.3,0.3-0.5,0.5-0.8,0.8
	c-0.3,0.3-0.6,0.5-0.8,0.9c-0.2,0.3-0.6,0.4-0.7,0.7c-0.6,0.3-0.9,0.8-1.3,1.2c-0.5,0.4-0.9,0.8-1.4,1.2c-0.2,0.2-0.2,0.5-0.4,0.6
	c-0.4,0.2-0.7,0.6-1,0.9c-0.1,0.4-0.2,0.8-0.2,1.1c0,0.4,0.1,0.7,0.2,1c0.1,0.2,0.2,0.3,0.3,0.4c1.2-0.5,1.8-1.6,2.8-2.3
	c1-0.7,1.8-1.6,2.7-2.5h0.3c0.1,0.3,0.1,0.6,0.2,1c0,0-0.1,0.1-0.1,0.1c0.4,1.3-0.1,2.6,0,3.8c-0.3,0.3-0.5,0.3-0.8,0v-0.9
	c0-0.3,0-0.6,0-0.9c0-0.3-0.1-0.6,0.1-0.8c-0.1-0.3-0.2-0.7-0.6-0.5c-0.4,0.2-0.5,0.5-0.8,0.6c-0.5,0.3-0.9,0.8-1.3,1.3
	c-0.3,0.4-0.6,0.7-1,1c-0.2,0.1-0.3,0.2-0.5,0.3v0.7c0.3,0.1,0.6,0.1,1,0.2c0.1-0.2,0.2-0.4,0.2-0.5c0-0.4,0.2-0.7,0.4-1
	c0.2-0.1,0.3-0.3,0.5-0.4c0.1-0.1,0.3-0.3,0.4-0.5c0.2-0.2,0.4-0.4,0.5-0.6c0.1,0,0.3,0,0.4,0v2.7h1.7c0.3-0.3,0.4-0.6,0.4-1
	c0-1.7,0-3.5,0-5.2C183.3,60.3,183.2,60,183.1,59.7"/>
<path id="XMLID_67_" class="st0" d="M167,16.6c-0.6,0.6-1.1,1.2-1.5,1.7h-1.1c-0.1-0.1-0.1-0.1-0.2-0.2c0.5-1,1.4-1.8,1.7-2.7
	c0-0.2-0.1-0.3-0.1-0.4c-0.2,0.1-0.4,0.2-0.5,0.2c-0.2,0.9-0.9,1.5-1.5,2.2c-0.1-0.1-0.2-0.2-0.3-0.3c0.1-0.6,0.1-1.2,0.2-1.8
	c-0.2-0.3-0.5-0.2-0.7-0.2c-0.1,0.1-0.1,0.3-0.2,0.3c0.1,0.2,0.2,0.4,0.3,0.7c0,0.1,0,0.3,0,0.4c-0.2,0.5-0.1,1-0.2,1.4
	c-0.7,0.1-1.2-0.2-1.7-0.7v-2.1c-0.1-0.1-0.3-0.1-0.3-0.2c-0.2,0.1-0.3,0.2-0.4,0.3c0,0.7,0.1,1.2,0.1,1.8c0,0.5,0.2,0.8,0.7,1
	c0.5,0.2,1,0.4,1.5,0.6c0.2,0.1,0.3,0.1,0.5,0.1c0.6,0,1.2,0,1.7,0c0.5,0,1-0.3,1.3-0.7c0.2-0.3,0.4-0.4,0.5-0.7h0.3
	c0.3,0.3,0.7,0.7,1,1.1c0.7,0.1,1.4-0.2,2.1-0.2c1.5,0.1,2.9,0,4.5,0c0.5-0.5,1-0.9,1.5-1.5c0.3-0.3,0.5-0.6,0.8-0.9
	c0.3-0.4,0.7-0.7,1.1-1.1c0.9,0.1,1.9,0.1,2.9,0.2c0.1,0.1,0.1,0.2,0.2,0.4c0,0.2,0,0.5,0,0.8c0.1,0.5-0.2,0.9-0.5,1.1
	c-0.4,0.1-0.6,0.2-0.9,0.2c-0.1,0.2-0.2,0.4-0.2,0.4c0.2,0.2,0.3,0.4,0.3,0.5h0.6c0.4-0.4,0.7-0.9,1-1.2v-2.6
	c-0.1-0.1-0.1-0.1-0.2-0.2c-0.6-0.1-1.2-0.1-1.8-0.2c-0.3,0-0.7,0-1,0c-0.7,0-1.2,0.2-1.6,0.7c-0.3,0.5-0.8,0.9-1.2,1.3
	c-0.3,0.3-0.7,0.5-0.8,0.9c-0.2,0.5-0.6,0.6-1.1,0.6c-1.4,0-2.8,0-4.2,0c-0.5,0-1,0.1-1.4,0.1C168.1,17.5,167.5,17.1,167,16.6"/>
<path id="XMLID_66_" class="st0" d="M128.6,56.6c-0.6-0.6-1.3-1-2-1.4c-0.5-0.3-1.1-0.7-1.6-1c-0.6-0.4-1.2-0.7-1.7-1.1
	c-0.4-0.3-0.9-0.6-1.3-0.9V51c0.1-0.1,0.2-0.2,0.4-0.3c-0.1-0.2-0.1-0.5-0.2-0.6h-0.7c-0.1,0.1-0.1,0.1-0.2,0.2c0,0.5,0,1.1,0,1.6
	c0,0.4,0.1,0.7,0.5,0.9c0.5,0.3,1,0.7,1.5,1c0.7,0.5,1.4,0.9,2.1,1.3c0.9,0.5,1.7,1.1,2.6,1.6v1.1c-0.1,0.1-0.2,0.2-0.3,0.2
	c-1.3-0.9-2.6-1.6-3.8-2.5c-1.2-0.9-2.5-1.6-3.7-2.6c0-0.9,0-1.8,0-2.7c0-0.4,0.2-0.7,0.5-0.9c0.6-0.4,1.1-0.8,1.7-1.1
	c0.7-0.5,1.4-1,2.2-1.5c0.4,0.1,0.8,0,1.1-0.4v-0.4c-0.1-0.1-0.1-0.2-0.2-0.2h-0.7c-0.4,0.4-0.8,0.7-1.2,1c-0.5,0.4-1,0.6-1.5,1
	c-0.5,0.4-1.1,0.8-1.7,1.1c-0.3,0.2-0.6,0.3-0.7,0.7c-0.1,0.5,0,1-0.1,1.5c-0.1,0.5,0,1,0,1.5c0,0.3,0,0.7,0.2,0.9
	c0.8,0.4,1.4,0.9,2,1.3c0.9,0.7,1.9,1.2,2.8,1.9c0.9,0.6,1.8,1.1,2.6,1.8c0.3,0.2,0.6,0.3,1,0.5c0.2-0.3,0.4-0.5,0.5-0.7V56.6z"/>
<path id="XMLID_65_" class="st0" d="M250.7,41.3h-10.5c-0.2,0-0.4-0.1-0.5,0c-0.3,0.2-0.8,0-0.9,0.5c0.3,0.3,0.6,0.6,0.9,0.9
	c0,1.4,0,2.8,0,4.2c0,1.4-0.1,2.8,0.1,4.2c0.1,0.6,0,1.2-0.1,1.8c-0.1,0.6-0.1,1.3,0,1.9c0,0.4,0.1,0.8,0.4,1.1
	c0.6,0.6,1.2,1.3,1.8,1.9h0.5c0.1-0.1,0.3-0.3,0.4-0.4c-0.1-0.3-0.1-0.5-0.2-0.8c-0.3-0.1-0.6-0.1-1-0.2c-0.4-0.4-0.8-0.9-1.2-1.3
	V44.3v-0.8c0-0.3,0-0.6,0-0.8c0-0.2-0.1-0.4-0.1-0.7c1,0,2,0,2.9,0c0.9,0,1.9-0.2,2.8-0.2c1.9,0.1,3.8-0.1,5.7,0.2
	c0.2-0.2,0.5-0.3,0.4-0.6c-0.2-0.2-0.3-0.4-0.4-0.6C251.4,41,251.1,41.1,250.7,41.3"/>
<path id="XMLID_64_" class="st0" d="M128.6,44c0.2-0.1,0.3-0.4,0.2-0.6c-0.1-0.3-0.1-0.6-0.1-0.9c0-0.3,0-0.6-0.1-0.9
	c-0.1-0.3-0.1-0.6-0.1-0.9c0-2,0-4.1,0-6.1c0-0.7-0.2-1.3-0.7-1.8c-1-0.9-2-1.9-2.9-2.9c-0.1-0.2-0.3-0.3-0.4-0.5
	c-0.3-0.4-0.8-0.7-1.2-1.1c-0.1-1.4,0.2-2.9-0.2-4.4c-0.4-0.3-0.8-0.2-1.2-0.2c-0.1,0-0.3,0.1-0.4,0.1c-0.6,0-1.2,0-1.8,0
	c-0.1-0.1-0.1-0.1-0.2-0.2v-1c0.2-0.2,0.3-0.3,0.4-0.5c1,0,2,0.1,3.1,0.1c0.1-0.2,0.4-0.3,0.3-0.7c-0.2-0.1-0.4-0.2-0.6-0.3
	c-0.4,0.2-0.8,0.3-1.2,0.3c-0.5,0-1,0-1.4,0c-0.3,0-0.7,0.1-1,0.1c-0.1,0.8-0.2,1.5-0.3,2.2c0.3,0.2,0.5,0.4,0.7,0.5
	c0.5,0,1.1,0.1,1.6,0c0.5-0.1,0.9-0.1,1.3-0.1c0.1,0.1,0.2,0.2,0.2,0.2v3.9c0.5,0.5,1,1,1.4,1.4c0.4,0.4,0.9,0.9,1.3,1.3
	c0.4,0.5,0.9,0.9,1.3,1.4c0.4,0.4,0.8,0.8,1.2,1.2c0.1,2-0.1,3.9,0.2,5.9c0.1,1,0,2.1,0,3.1c0,0.2,0,0.3-0.1,0.5
	c-0.1,0.2-0.1,0.5,0.2,0.7H128.6z"/>
<path id="XMLID_63_" class="st0" d="M112.7,12.2c-0.1,0.1-0.3,0.2-0.4,0.3c-0.3,0.3-0.6,0.6-0.9,0.8c-0.7,0.5-1.3,1.1-1.9,1.5
	c-0.3,0.2-0.5,0.5-0.8,0.7c-0.1,0.1-0.3,0.2-0.4,0.3c-0.1,0.1-0.3,0.2-0.5,0.2c-0.1,0-0.3,0-0.4,0c-0.1,0.1-0.3,0.2-0.4,0.2v0.4
	c0.1,0.1,0.1,0.1,0.2,0.2c0.3,0.3,0.8,0.3,1-0.2c0.1-0.2,0.3-0.4,0.5-0.6c0.4-0.3,0.7-0.6,1.1-0.9c0.2-0.2,0.5-0.4,0.7-0.6
	c0.3-0.2,0.6-0.4,0.9-0.7c0.2-0.2,0.5-0.5,0.8-0.7c0.4-0.3,0.7-0.6,1.1-0.9v-1.6c-0.2,0-0.4-0.1-0.6-0.1c-0.2,0-0.4,0-0.6,0
	c-0.2,0-0.4,0-0.6,0c-0.4,0-0.7,0.1-1,0.4c-0.7,0.6-1.3,1.3-2,1.9c-0.1,0-0.1,0.1-0.2,0.1v-2.8c0.2-0.2,0.3-0.4,0.3-0.7
	c-0.1-0.1-0.3-0.2-0.5-0.3c-0.3,0.1-0.5,0.3-0.6,0.6c0.1,0.2,0.2,0.4,0.3,0.6v3.6c0.1,0,0.2,0.1,0.3,0.1c0.2-0.2,0.4-0.5,0.6-0.6
	c0.3-0.2,0.6-0.5,0.9-0.8c0.2-0.2,0.4-0.4,0.6-0.5c0.2-0.2,0.4-0.3,0.5-0.4c0.2-0.2,0.4-0.3,0.5-0.5h1.7V12.2z"/>
<path id="XMLID_62_" class="st0" d="M165,59.8c0.3,0.4,0.6,0.8,0.9,1.1c0.7,0.7,1.3,1.4,1.9,2.2c0.5,0.6,1,1.1,1.4,1.6
	c0.1,0.1,0.2,0.1,0.2,0.2c0.1,0.2,0.1,0.4,0.1,0.6c0,0.1-0.1,0.2-0.2,0.4h-0.8c-0.6-0.7-1.3-1.4-1.9-2.1c0,0,0,0-0.1-0.1
	c-0.5-0.8-1.1-1.5-1.8-2.1h-0.4c-0.1,0.2-0.3,0.4-0.3,0.6c0,0.5-0.2,1,0.1,1.5c0.1,0.1-0.1,0.4-0.1,0.5c0.1,0.2,0.2,0.5,0.3,0.7
	c0.8,0.1,0.9,0.2,1.4,0.6c0,0.1,0,0.2,0,0.4c-0.8-0.2-1.5,0.2-2.2-0.3c-0.1-0.4,0-0.8-0.1-1.2c-0.1-0.3-0.2-0.8,0.1-1.1
	c-0.1-0.4,0.3-0.8,0.1-1.3c-0.2-0.1-0.4-0.1-0.6-0.2c0,0,0,0.1,0.1,0.1c-0.2,0.1-0.3,0.2-0.5,0.3c0.3,0.7,0.2,1.3,0.2,2
	c0,0.3,0,0.6,0,0.9c0,0.5,0.1,0.9,0.5,1.2c0.6,0,1.2,0,1.7,0c0.6-0.1,1.1,0.3,1.8,0.1c0.1-0.1,0.1-0.1,0.2-0.2
	c0-0.1-0.1-0.3-0.1-0.4c-0.2-0.3-0.5-0.7-0.7-1c-0.1-0.2-0.2-0.4-0.4-0.5c-0.2-0.1-0.5-0.1-0.7-0.2c-0.1,0-0.1,0-0.2,0V63
	c0.1,0,0.2,0,0.2,0c0.6,0.7,1.2,1.3,1.9,2c0,0,0,0.1,0,0.1c0.5,0.5,1,1.2,1.7,1.5c0.3-0.3,0.7-0.1,1-0.2c0.2-0.1,0.3-0.2,0.4-0.3
	v-1.4c-0.6-0.7-1.2-1.3-1.8-2c-0.3-0.4-0.7-0.8-1-1.2c-0.5-0.7-1.1-1.3-1.7-1.9c-0.2-0.2-0.4-0.4-0.6-0.6c-0.4,0-0.4,0-0.7,0.2
	c-0.4,0.2-0.7,0.7-1.2,0.8c-0.1,0-0.2,0.2-0.4,0.4c0.1,0.2,0.2,0.4,0.2,0.6h0.5C164,60.6,164.2,60,165,59.8"/>
<path id="XMLID_61_" class="st0" d="M257.6,30.7c0,0.6,0,1.1-0.1,1.7c-0.1,0.6,0,1.3,0,2c0,0.7,0,1.4,0,2c0.1,0.7-0.2,1.3-0.2,1.9
	c0,0.4,0,0.9,0,1.3c0.2,0.2,0.4,0.3,0.7,0.5h2.2c0.2-0.1,0.3-0.2,0.4-0.2c0.1-0.1,0.1-0.2,0.2-0.4c0-2.2,0-4.5,0-6.8
	c0-0.2,0-0.4,0-0.6c0.2-0.5,0.2-1-0.1-1.5c-0.3-0.1-0.6-0.2-0.9-0.3c0.4-0.7,1-1.1,1.7-1.3c0.1-0.2,0.1-0.3,0.2-0.5
	c-0.3-0.2-0.6-0.4-0.8-0.6c-0.3,0.1-0.5,0.3-0.7,0.4V29c-0.5,0.4-1,0.9-1.5,1.3c-0.2,0.1-0.4,0.3-0.6,0.3
	C257.9,30.6,257.7,30.7,257.6,30.7"/>
<path id="XMLID_60_" class="st0" d="M157.3,10.4v12c-0.1,0-0.1-0.1-0.2-0.1c0,0.1,0,0.2,0,0.4c-0.2-0.3-0.4-0.6-0.6-0.8
	c-0.3-0.3-0.5-0.7-0.8-1c-0.3-0.3-0.4-0.6-0.4-1c0-1.6,0-3.2,0-4.8c-0.1-0.2-0.2-0.3-0.2-0.3c-0.5-0.3-1-0.6-1.4-0.9
	c-0.1-0.1-0.2-0.1-0.2-0.2c-0.1-0.2-0.2-0.4-0.3-0.6c0,0,0,0-0.1-0.1h-0.5c0,0,0.1,0.1,0.1,0.1c-0.2,0.1-0.4,0.2-0.5,0.3
	c0.1,0.3,0.2,0.5,0.3,0.6c1.2,0.5,1.6,0.7,2.2,1.3c0,1.6,0,3.1,0,4.7c0,0.2,0,0.5,0.1,0.7c0.2,0.3,0.4,0.5,0.6,0.8
	c0.3,0.4,0.6,0.7,0.9,1.1c0.3,0.5,0.7,1,1.1,1.4c0,0,0.1,0,0.2,0c0.1-0.1,0.1-0.2,0.2-0.3v-7v-1.4c0-0.5,0-0.9,0-1.4
	c0-0.5,0-0.9-0.1-1.4c-0.1-0.4,0-0.9,0-1.3V9.8l-0.2-0.2c-1.6-0.1-3.3,0.2-4.8-0.2l-0.4,0.4v0.3c0.2,0.2,0.3,0.4,0.4,0.5h0.5
	c0.1-0.1,0.3-0.3,0.4-0.4h3.5L157.3,10.4z"/>
<path id="XMLID_59_" class="st0" d="M221.9,57.5c0.2,1.2-0.1,2.4-0.1,3.6c-0.7,0.5-1.3,1.1-2,1.7c-0.5,0.1-0.6,0.6-1,0.8
	c-0.6,0.3-1.1,0.8-1.5,1.2c-0.3,0.3-0.7,0.5-1.1,0.6c-0.1,0-0.2,0.1-0.3,0.2v0.5c0.1,0.2,0.3,0.3,0.3,0.4h0.5
	c0.4-0.6,0.8-1.1,1.5-1.5c0.2-0.1,0.4-0.3,0.6-0.4c0.5-0.5,1.1-0.9,1.7-1.4c0.7-0.6,1.5-1.1,2.1-1.7c0.1-1.3,0.2-2.6,0.3-4
	c0,0-0.1-0.2-0.1-0.2c-0.5-0.4-0.9-0.6-1.3-0.9c-0.6-0.4-1.1-1-1.8-1.3c0,0-0.1,0-0.2,0c-0.1,0.1-0.1,0.1-0.2,0.2
	c-0.1,0.7-0.1,1.3-0.2,2c0,0.5,0.2,0.8,0.7,1c0.2,0.1,0.5,0.2,0.7,0.4v2c-0.3,0.2-0.6,0.4-0.9,0.5c0,0-0.1,0-0.2-0.1
	c0.1-0.2,0.2-0.3,0.3-0.5v-0.6c-0.1-0.1-0.1-0.1-0.2-0.2h-0.8c-0.1,0.1-0.3,0.3-0.4,0.4c0.1,0.2,0.2,0.4,0.4,0.6v1.4
	c0.1,0.1,0.2,0.1,0.3,0.2c0.8-0.6,1.6-1,2.3-1.8c0-0.4,0-0.7,0-1.1c0-0.4-0.1-0.8,0.2-1.2c-0.3-0.2-0.7-0.5-1-0.6
	c-0.4-0.2-0.5-0.4-0.6-0.8c0-0.1,0-0.2,0-0.4c0.2-0.1,0.3-0.1,0.5-0.2c0.5,0.4,1,0.8,1.4,1.2C221.8,57.5,221.9,57.4,221.9,57.5"/>
<path id="XMLID_58_" class="st0" d="M128.3,54.6c0.1-0.3,0.2-0.6,0.2-0.8c0.1-1.1,0-2.2,0.1-3.3c0.1-1.1,0-2.3,0-3.5
	c0-0.2,0-0.4,0-0.5c0-0.1,0.1-0.2,0.1-0.3c-0.1-0.2-0.1-0.4-0.2-0.6h-0.6c-1.4,1-2.8,2-4.1,3h-0.5c-0.3,0.2-0.2,0.4-0.2,0.7l0.4,0.4
	h0.5c0.2-0.3,0.4-0.6,0.7-0.8c1.1-0.7,2-1.6,3.2-2.2c0,0.1,0.1,0.2,0.2,0.3c0,0.3-0.1,0.6-0.1,0.9c0,0.9,0,1.7,0,2.6
	c0,0.9-0.3,1.7-0.2,2.6c0,0.2,0,0.4,0,0.6c-0.3-0.1-0.5-0.1-0.6-0.2c-0.6-0.4-1.2-0.7-1.8-1.2c-0.3-0.3-0.8-0.4-0.9-0.9
	c0.5-0.6,1.1-1,1.7-1.3c0.1,0.1,0.2,0.2,0.3,0.2c-0.1,0.3-0.1,0.6-0.2,0.8l-0.2,0.2v0.5c0.2,0.1,0.4,0.2,0.6,0.3
	c0.2-0.1,0.4-0.2,0.5-0.2c0.1-0.2,0.1-0.3,0.2-0.4c-0.3-0.4-0.4-0.9-0.3-1.3c0.2-0.4,0.1-0.9,0.1-1.3c-0.4-0.3-0.6-0.3-1,0
	c-0.3,0.3-0.7,0.6-1,0.9c-0.4,0.3-0.7,0.7-1.2,1c-0.4,0.2-0.5,0.5-0.5,0.9c1.4,1,2.8,1.9,4.2,2.9H128.3z"/>
<path id="XMLID_57_" class="st0" d="M155.6,40.4c0,0.9,0,1.7,0,2.6c0.1,0.1,0.2,0.2,0.4,0.4c0.7,0,1.1-0.4,1.6-0.8v-3.4
	c0.2-0.1,0.3-0.1,0.5-0.2l0.3,0.3v1.5c0.1,0.1,0.2,0.2,0.3,0.3c0.2-0.2,0.5-0.4,0.7-0.6c0.3-0.2,0.5-0.4,0.8-0.7c0-1.5,0-3.1,0-4.6
	c0,0,0,0-0.1-0.1h-0.4c-1.7,1.5-3.4,2.9-5.1,4.4c0,0.9,0,1.9,0,2.9c0,0.2-0.1,0.4,0,0.5c0.2,0.3,0.1,0.4,0,0.7c-0.1,0.1,0,0.3,0,0.4
	c0,0,0.1,0,0.1-0.1c0.1,0.1,0.2,0.3,0.3,0.5c0.2-0.1,0.4-0.2,0.5-0.3c-0.1-0.5-0.1-1-0.2-1.4c0-0.5,0-1-0.1-1.5
	c-0.1-0.4,0-0.9,0-1.4c1.4-1.2,2.7-2.4,4.2-3.5c0.1,0.1,0.1,0.1,0.1,0.2c0,1,0.1,1.9,0.1,2.9c-0.2,0.2-0.3,0.4-0.6,0.4v-1.6
	c-0.2-0.2-0.3-0.4-0.4-0.6c-0.6,0.3-1,0.7-1.3,1.1c-0.2,0.3-0.5,0.7-0.3,1.1c0.1,0.2,0.1,0.4,0.1,0.6c0,0.5,0,1,0,1.4
	c0,0.1,0,0.1,0,0.2c-0.2,0.1-0.2,0.4-0.5,0.3c-0.2-0.3,0.1-0.6-0.2-0.8c0,0,0-0.2,0-0.3c0.1-0.2,0.2-0.5,0.3-0.7
	c-0.1-0.2-0.2-0.3-0.2-0.4h-0.4L155.6,40.4z"/>
<path id="XMLID_56_" class="st0" d="M152.8,22.8v-1.6c0-0.6,0-1.1,0-1.7c0-0.5,0.1-1,0.2-1.5c-0.5-0.3-0.5-0.3-0.9,0
	c0,0.1,0,0.3,0,0.4c0.2,0.6,0.1,1.3,0.1,1.9c0,0.7,0,1.5,0,2.2c0,0.4,0.2,0.7,0.5,0.9c0.4,0.3,0.8,0.6,1.2,0.9V25l-1.2,1.2v1.9
	c0.2,0.1,0.3,0.3,0.4,0.4c1.3-1.1,2.5-2.2,3.8-3.3v-0.7c-0.8-0.8-1.5-1.6-2.2-2.4c-0.2-0.3-0.3-0.6-0.4-0.9c0-1.4,0.2-2.8-0.2-4.1
	c-0.3-0.5-1-0.7-1.2-1.3c-0.3-0.1-0.6-0.1-0.7,0.2v0.7c0.5,0.2,1.2,0.2,1.5,0.9v4c0.6,1.4,1.8,2,2.4,3.1v0.4
	c-0.9,0.8-1.8,1.6-2.7,2.3c-0.3-0.3-0.3-0.7-0.3-1.1c0.6-0.5,1.1-1,1.7-1.5C154.3,23.8,153.4,23.5,152.8,22.8"/>
<path id="XMLID_55_" class="st0" d="M120.5,25.4c0,0.1,0,0.3,0,0.4c0.3,0.7,0.1,1.4,0.1,2.1c0,0.4,0,0.8,0.2,1.1
	c0.1,0.2,0.1,0.6,0.5,0.7c0.2,0.4,0.7,0.5,0.9,0.9c0.2,0.3,0.5,0.5,0.7,0.8c0.3,0.4,0.6,0.7,0.9,1c0.7,0.7,1.4,1.4,2.1,2.1
	c0,0.8-0.1,1.5,0,2.3c0.1,0.7,0.1,1.5,0.1,2.2c0,0.8,0,1.5,0,2.3c0,0.4,0,0.9,0,1.3c0,0.1-0.1,0.3,0,0.4c0.3,0.4,0,0.7-0.2,1.1v0.6
	c0.2,0.1,0.4,0.2,0.6,0.3c0.2-0.1,0.4-0.2,0.6-0.4v-0.7l-0.3-0.3V41c0-1.1,0.1-2.3,0-3.4c-0.2-1.1,0-2.3-0.1-3.4
	c-0.2-0.2-0.4-0.4-0.7-0.7c-0.2-0.2-0.5-0.4-0.6-0.7c-0.1-0.3-0.5-0.4-0.7-0.6c-0.5-0.6-1-1.2-1.5-1.7c-0.6-0.6-1.2-1.2-1.8-1.8
	c0-0.5,0-1.1,0-1.6c0-0.6-0.1-1.1,0.1-1.7c-0.1-0.1-0.3-0.2-0.4-0.4C120.9,25.1,120.6,25,120.5,25.4"/>
<path id="XMLID_54_" class="st0" d="M206.6,17.4c1-1.4,2.2-2.5,3.4-3.5c-0.1-0.2-0.1-0.3-0.2-0.4h-0.6c-0.3,0.3-0.5,0.6-0.8,0.9
	c-0.6,0.7-1.3,1.3-2,2c-0.2,0.2-0.3,0.6-0.5,0.7c-0.3,0.1-0.4,0.4-0.5,0.6c0.1,0.1,0.2,0.3,0.3,0.4h2.6c0.4-0.5,0.9-0.9,1.3-1.4
	c0.6-0.7,1.3-1.3,1.9-2c0.6-0.7,1.4-1.3,1.9-2.2c0-0.1,0-0.3,0-0.4c0-0.1-0.1-0.1-0.2-0.2c-0.5,0-0.9,0-1.4,0c-0.4,0-0.7,0-1.1,0.1
	c-0.4,0.1-1,0.1-1.4,0c-0.2,0-0.4-0.1-0.6-0.1c-0.4,0.2-0.3,0.5-0.3,0.6c0.2,0.2,0.3,0.3,0.4,0.5c0.3-0.1,0.6-0.2,0.9-0.3
	c0.4-0.1,0.8-0.1,1.3-0.1c0.4,0,0.8,0,1.3,0c-0.6,1-1.5,1.6-2.1,2.5c-0.7,0.8-1.5,1.4-2,2.3H206.6z"/>
<path id="XMLID_53_" class="st0" d="M232.9,61.3c0.1,0,0.3,0,0.3,0c0.3,0.2,0.6,0.5,0.9,0.7c0.4,0.4,0.8,0.9,1.3,1.3
	c0.6,0.4,1.1,1,1.7,1.6c-0.3,0.1-0.4,0.1-0.6,0.1c-0.7,0-1.5,0-2.2,0c-0.3,0-0.7,0-0.9-0.2v-1.2l0.2-0.2c0.2,0.1,0.3,0.2,0.5,0.3
	v0.5c0.2,0.1,0.4,0.2,0.6,0.3c0.2-0.1,0.4-0.2,0.6-0.3v-0.7c-0.8-0.3-1.3-0.8-1.8-1.3h-0.5c-0.3,1-0.2,2.1-0.2,3
	c0.3,0.3,0.6,0.4,0.9,0.4c1.6,0,3.2,0,4.8,0c0,0,0.1,0,0.1-0.1v-0.3c-0.7-0.6-1.3-1.3-2.1-1.9c-0.9-0.8-1.7-1.6-2.6-2.5v-0.3
	c-0.1-0.1-0.3-0.2-0.4-0.4h-0.6C232.5,60.7,232.8,61,232.9,61.3"/>
<path id="XMLID_52_" class="st0" d="M130.3,13.5c0,0,0-0.1-0.1-0.2c0.2-0.1,0.4-0.2,0.6-0.2c-0.1-0.2-0.2-0.4-0.3-0.5h-0.5
	c-1.1-1-2-2.2-3.2-3h-7.6c-0.2,0.2-0.5,0.3-0.6,0.5c-0.1,1,0.2,2-0.5,2.8c0.1,0.2,0.2,0.4,0.4,0.6c0.3-0.1,0.7-0.1,1-0.2
	c0.1-0.5,0-0.8-0.3-1.1c0.3-0.3,0.1-0.6,0.1-0.9c0-0.3,0-0.6,0-0.9c0.3-0.1,0.5-0.2,0.7-0.2c2.1,0,4.1,0,6.2,0
	c0.3,0,0.6,0.1,0.7,0.3c0.1,0.2,0.4,0.4,0.5,0.5c0.2,0.3,0.4,0.5,0.6,0.7c0.5,0.5,1.1,1.1,1.6,1.6c0.1,0.1,0.1,0.2,0.2,0.2H130.3z"
	/>
<path id="XMLID_51_" class="st0" d="M242.3,53.5c0-3.2,0-6.5,0-9.7c0.3-0.3,0.3-0.7,0.3-1.1c-0.1-0.1-0.1-0.2-0.2-0.2h-0.8l-0.3,0.3
	v0.6c0.1,0.1,0.2,0.1,0.3,0.2c0,1.8,0,3.6,0,5.4c0,1.8,0.1,3.6-0.1,5.5c0,0.1,0.1,0.2,0.2,0.3c0.2,0.1,0.3,0.1,0.2,0.1
	c0.5,0,0.8-0.1,1-0.6C242.7,54.1,242.5,53.8,242.3,53.5"/>
<path id="XMLID_50_" class="st0" d="M125.5,10.8c-0.8,0-1.5,0-2.3,0c-0.8-0.1-1.5,0.2-2.3,0.2c-0.1,0.1-0.3,0.2-0.4,0.4v1.4
	c0.2,0.3,0.4,0.5,0.6,0.8c1.5,0.1,2.9-0.3,4.3-0.1c0.3-0.3,0.4-0.6,0.4-0.9c0-0.4,0-0.9,0-1.3C125.8,11,125.7,10.9,125.5,10.8"/>
<path id="XMLID_49_" class="st0" d="M128.8,28.1c-0.9-0.3-1.6-0.8-2.3-1.3h-2c-0.1,0.1-0.2,0.2-0.2,0.3c-0.1,0.4,0.1,0.6,0.3,0.9
	c0.7,0.7,1.3,1.4,2,2.1c0.3,0.4,0.7,0.8,1,1.2c0,0,0,0.1,0.1,0.2c0.3,0.1,0.5,0.1,0.8,0.2c0,0,0-0.1-0.1-0.1
	c0.2-0.1,0.3-0.2,0.5-0.3c-0.1-0.2-0.2-0.4-0.2-0.6c-0.3-0.1-0.6-0.1-0.9-0.2c-0.8-0.8-1.6-1.7-2.3-2.6v-0.4c0.8,0,0.7,0,1.4,0.4
	c0.4,0.2,0.7,0.5,0.9,0.8c0.1,0.1,0.2,0.2,0.3,0.3h0.7c0.1-0.1,0.1-0.1,0.2-0.2V28.1z"/>
<path id="XMLID_48_" class="st0" d="M153.5,12.1c0.7,0,1.4,0,2,0c0.2,0,0.3,0.1,0.4,0.1c0.1,1.3,0.1,2.6,0.2,3.9c0,0.6,0,1.1,0,1.7
	c0,0.4,0,0.9,0,1.3c0,0.2-0.2,0.5-0.3,0.7c0,0,0,0.1,0,0.1c0.1,0.1,0.3,0.2,0.5,0.4c0.1,0,0.1,0,0.2,0l0.4-0.4
	c-0.1-0.2-0.2-0.5-0.2-0.7c0-1-0.2-2-0.2-3c0.1-1.2,0-2.4,0-3.5c0-0.3,0-0.7-0.2-0.9c-0.2-0.1-0.3-0.2-0.4-0.2c-0.6,0-1.1,0-1.7,0
	c-0.5,0-1.1-0.1-1.6-0.2c-0.1,0.1-0.2,0.2-0.2,0.2v0.6c0.2,0.3,0.5,0.2,0.7,0.2C153.3,12.3,153.4,12.2,153.5,12.1"/>
<path id="XMLID_47_" class="st0" d="M176,38.3c0.1,0.8-0.1,1.6,0.2,2.3c0.1,0.1,0.2,0.2,0.3,0.3h2.2c0.1-0.1,0.1-0.1,0.2-0.2v-2.6
	c-0.8-0.4-1.6-0.1-2.3-0.2c-0.1,0.1-0.2,0.1-0.3,0.2C176.2,38.1,176.2,38.2,176,38.3"/>
<path id="XMLID_46_" class="st0" d="M174.9,38.1c-0.5-0.2-0.8-0.2-1.1,0.2c-0.8,0.7-1.4,1.5-2.3,2.1c0,0,0,0.1,0,0.2
	c0.1,0.1,0.3,0.3,0.4,0.4c0.2-0.1,0.4-0.1,0.5-0.3c0.2-0.4,0.5-0.6,0.8-0.9c0.3-0.3,0.6-0.6,0.9-0.9c0,0,0.1,0,0.2,0
	c0.1,0.1,0.1,0.2,0.3,0.3c-0.1,0.3-0.1,0.7-0.3,1c-0.1,0.3-0.1,0.5,0.1,0.7h0.6c0.2-0.3,0.3-0.5,0.1-0.9c-0.1-0.3,0-0.6,0-1
	C175.1,38.8,175,38.5,174.9,38.1"/>
<path id="XMLID_45_" class="st0" d="M169.7,11.5c1.1,0.2,2.1-0.1,3.1-0.1c0.5-0.3,0.9-0.6,1.4-1c0-0.4,0-0.4-0.3-0.7
	c-0.4,0.4-0.8,0.7-1.1,1c-1,0.1-1.9,0.1-2.8,0.2c-0.3-0.3-0.7-0.7-1-1h-0.5c-0.1,0.2-0.1,0.3-0.2,0.6
	C168.9,10.7,169.4,11,169.7,11.5"/>
<path id="XMLID_44_" class="st0" d="M180.4,15.5c-0.5,0.3-1.1,0.2-1.6,0.2c-0.8,0.4-1.4,1.6-2,2.2c0.1,0.1,0.1,0.3,0.2,0.4h0.6
	c0.1-0.2,0.1-0.3,0.2-0.6c0.3-0.4,0.7-0.9,1.2-1.4c0.6,0.1,1.1,0.1,1.7,0.2c0.1-0.2,0.2-0.4,0.2-0.5L180.4,15.5z"/>
<path id="XMLID_43_" class="st0" d="M131.1,17.9c0.6,0.7,1.2,1.4,1.9,2.1c0,0.1,0,0.2,0,0.2c0.2,0.2,0.3,0.3,0.3,0.4h0.6
	c0.2-0.2,0.3-0.3,0.1-0.6c-0.4-0.3-0.7-0.6-1.1-1c-0.4-0.4-0.7-0.7-0.8-1.2c-0.1-0.2-0.2-0.3-0.3-0.4
	C131.5,17.4,131.4,17.6,131.1,17.9"/>
<rect id="XMLID_42_" x="127.7" y="86.8" class="st0" width="3.6" height="3.6"/>
<path id="XMLID_41_" class="st0" d="M10,82.2C10.1,82.3,10.1,82.3,10,82.2l0.1,12.6c0,0,0,0.1-0.1,0.1H6.2c0,0-0.1,0-0.1-0.1
	c0,0,0-12.6,0.1-12.6H10z"/>
<path id="XMLID_40_" class="st0" d="M25.9,82.2C25.9,82.3,25.9,82.3,25.9,82.2l0.1,12.6c0,0,0,0.1-0.1,0.1h-3.7c0,0-0.1,0-0.1-0.1
	v-9.1h-7.3v9.1c0,0,0,0.1-0.1,0.1H11c0,0-0.1,0-0.1-0.1V82.3c0,0,0-0.1,0.1-0.1H25.9z"/>
<path id="XMLID_39_" class="st0" d="M41.7,82.2C41.8,82.3,41.8,82.3,41.7,82.2l0.1,12.6c0,0,0,0.1-0.1,0.1H38c0,0-0.1,0-0.1-0.1
	v-9.1h-7.3v9.1c0,0,0,0.1-0.1,0.1h-3.7c0,0-0.1,0-0.1-0.1V82.3c0,0,0-0.1,0.1-0.1H41.7z"/>
<path id="XMLID_36_" class="st0" d="M57.6,82.3C57.6,82.3,57.6,82.3,57.6,82.3l0.1,12.6c0,0,0,0.1-0.1,0.1H42.7c0,0-0.1,0-0.1-0.1
	V82.3c0,0,0-0.1,0.1-0.1H57.6z M46.5,91.4h7.3v-5.7h-7.3V91.4z"/>
<path id="XMLID_35_" class="st0" d="M64.5,94.9c-2.2-4.7-3.5-7.4-3.8-8c-1.5-3-2.2-4.6-2.2-4.6h4.4l3.1,6.5c0,0,0.5-1.1,1.6-3.3
	c0.9-2,1.4-3,1.5-3.2h4.3v0c-0.2,0.5-1.4,2.9-3.5,7.3c-1.5,3.2-2.4,5-2.6,5.3H64.5z"/>
<path id="XMLID_32_" class="st0" d="M78.2,90.3v4.5c0,0,0,0.1-0.1,0.1h-3.7c0,0-0.1,0-0.1-0.1V82.3c0,0,0-0.1,0.1-0.1h14.9
	c0,0,0.1,0,0.1,0.1v12.5c0,0,0,0.1-0.1,0.1h-3.7c0,0-0.1,0-0.1-0.1v-4.5H78.2z M78.2,86.9h7.3v-1.2h-7.3V86.9z"/>
<path id="XMLID_31_" class="st0" d="M95.7,85.8h-5.4c0,0-0.1,0-0.1-0.1v-3.4c0,0,0-0.1,0.1-0.1h14.9c0,0,0.1,0,0.1,0.1v3.4
	c0,0,0,0.1-0.1,0.1h-5.4v9c0,0,0,0.1-0.1,0.1h-3.9c0,0-0.1,0-0.1-0.1V85.8z"/>
<path id="XMLID_30_" class="st0" d="M106.1,82.3C106.1,82.3,106.1,82.2,106.1,82.3l14.9-0.1c0,0,0.1,0,0.1,0.1v3.3
	c0,0,0,0.1-0.1,0.1h-11.1v1.2H121c0,0,0.1,0,0.1,0.1v3.3c0,0,0,0.1-0.1,0.1h-11.1v1.1H121c0,0,0.1,0,0.1,0.1v3.3c0,0,0,0.1-0.1,0.1
	h-14.9c0,0-0.1,0-0.1-0.1V82.3z"/>
<path id="XMLID_27_" class="st0" d="M141.8,90.3v4.5c0,0,0,0.1-0.1,0.1H138c0,0-0.1,0-0.1-0.1V82.3c0,0,0-0.1,0.1-0.1h14.9
	c0,0,0.1,0,0.1,0.1v12.5c0,0,0,0.1-0.1,0.1h-3.7c0,0-0.1,0-0.1-0.1v-4.5H141.8z M141.8,86.9h7.3v-1.2h-7.3V86.9z"/>
<path id="XMLID_26_" class="st0" d="M157.6,82.2C157.6,82.3,157.6,82.3,157.6,82.2l0.1,9.2h7.3v-9.1c0,0,0-0.1,0.1-0.1h3.7
	c0,0,0.1,0,0.1,0.1v12.5c0,0,0,0.1-0.1,0.1h-14.9c0,0-0.1,0-0.1-0.1V82.3c0,0,0-0.1,0.1-0.1H157.6z"/>
<path id="XMLID_25_" class="st0" d="M175.1,85.8h-5.4c0,0-0.1,0-0.1-0.1v-3.4c0,0,0-0.1,0.1-0.1h14.9c0,0,0.1,0,0.1,0.1v3.4
	c0,0,0,0.1-0.1,0.1h-5.4v9c0,0,0,0.1-0.1,0.1h-3.9c0,0-0.1,0-0.1-0.1V85.8z"/>
<path id="XMLID_22_" class="st0" d="M200.5,82.3C200.5,82.3,200.5,82.3,200.5,82.3l0.1,12.6c0,0,0,0.1-0.1,0.1h-14.9
	c0,0-0.1,0-0.1-0.1V82.3c0,0,0-0.1,0.1-0.1H200.5z M189.4,91.4h7.3v-5.7h-7.3V91.4z"/>
<path id="XMLID_21_" class="st0" d="M216.3,82.2C216.4,82.3,216.4,82.3,216.3,82.2l0.1,12.6c0,0,0,0.1-0.1,0.1h-3.7
	c0,0-0.1,0-0.1-0.1v-9.1h-1.8v9.1c0,0,0,0.1-0.1,0.1H207c0,0-0.1,0-0.1-0.1v-9.1h-1.8v9.1c0,0,0,0.1-0.1,0.1h-3.7c0,0-0.1,0-0.1-0.1
	V82.3c0,0,0-0.1,0.1-0.1H216.3z"/>
<path id="XMLID_18_" class="st0" d="M221.1,90.3v4.5c0,0,0,0.1-0.1,0.1h-3.7c0,0-0.1,0-0.1-0.1V82.3c0,0,0-0.1,0.1-0.1h14.9
	c0,0,0.1,0,0.1,0.1v12.5c0,0,0,0.1-0.1,0.1h-3.7c0,0-0.1,0-0.1-0.1v-4.5H221.1z M221.1,86.9h7.3v-1.2h-7.3V86.9z"/>
<path id="XMLID_17_" class="st0" d="M238.6,85.8h-5.4c0,0-0.1,0-0.1-0.1v-3.4c0,0,0-0.1,0.1-0.1H248c0,0,0.1,0,0.1,0.1v3.4
	c0,0,0,0.1-0.1,0.1h-5.4v9c0,0,0,0.1-0.1,0.1h-3.9c0,0-0.1,0-0.1-0.1V85.8z"/>
<path id="XMLID_16_" class="st0" d="M249,82.3C249,82.3,249,82.2,249,82.3l14.9-0.1c0,0,0.1,0,0.1,0.1v3.3c0,0,0,0.1-0.1,0.1h-11.1
	v1.2h11.1c0,0,0.1,0,0.1,0.1v3.3c0,0,0,0.1-0.1,0.1h-11.1v1.1h11.1c0,0,0.1,0,0.1,0.1v3.3c0,0,0,0.1-0.1,0.1H249c0,0-0.1,0-0.1-0.1
	V82.3z"/>
<line id="XMLID_15_" class="st0" x1="6.6" y1="94.3" x2="263.3" y2="94.3"/>
</svg>
